<?xml version="1.0" encoding="us-ascii" standalone="no"?><svg xmlns="http://www.w3.org/2000/svg" xmlns:xlink="http://www.w3.org/1999/xlink" contentStyleType="text/css" height="971px" preserveAspectRatio="none" style="width:2968px;height:971px;background:#FFFFFF;" version="1.1" viewBox="0 0 2968 971" width="2968px" zoomAndPan="magnify"><defs/><g><!--class EventEmitter--><g id="elem_EventEmitter"><rect codeLine="2" fill="#F1F1F1" height="48" id="EventEmitter" rx="2.5" ry="2.5" style="stroke:#181818;stroke-width:0.5;" width="123" x="1098.5" y="33.5"/><ellipse cx="1113.5" cy="49.5" fill="#ADD1B2" rx="11" ry="11" style="stroke:#181818;stroke-width:1.0;"/><path d="M1116.2656,45.375 Q1116.4219,45.1563 1116.6094,45.0469 Q1116.7969,44.9375 1117.0156,44.9375 Q1117.3906,44.9375 1117.625,45.2031 Q1117.8594,45.4531 1117.8594,46.0625 L1117.8594,47.5156 Q1117.8594,48.125 1117.625,48.3906 Q1117.3906,48.6563 1117.0156,48.6563 Q1116.6719,48.6563 1116.4688,48.4531 Q1116.2656,48.2656 1116.1563,47.75 Q1116.1094,47.3906 1115.9219,47.2031 Q1115.5938,46.8281 1114.9844,46.6094 Q1114.375,46.3906 1113.75,46.3906 Q1112.9844,46.3906 1112.3438,46.7188 Q1111.7188,47.0469 1111.2188,47.7969 Q1110.7344,48.5469 1110.7344,49.5781 L1110.7344,50.6719 Q1110.7344,51.9063 1111.625,52.7344 Q1112.5156,53.5469 1114.1094,53.5469 Q1115.0469,53.5469 1115.7031,53.2969 Q1116.0938,53.1406 1116.5156,52.7031 Q1116.7813,52.4375 1116.9219,52.3594 Q1117.0781,52.2813 1117.2813,52.2813 Q1117.6094,52.2813 1117.8594,52.5469 Q1118.125,52.7969 1118.125,53.1406 Q1118.125,53.4844 1117.7813,53.8906 Q1117.2813,54.4688 1116.4844,54.7969 Q1115.4063,55.25 1114.1094,55.25 Q1112.5938,55.25 1111.3906,54.625 Q1110.4063,54.125 1109.7188,53.0625 Q1109.0313,51.9844 1109.0313,50.7031 L1109.0313,49.5469 Q1109.0313,48.2188 1109.6406,47.0781 Q1110.2656,45.9219 1111.3594,45.3125 Q1112.4531,44.6875 1113.6875,44.6875 Q1114.4219,44.6875 1115.0625,44.8594 Q1115.7188,45.0156 1116.2656,45.375 Z " fill="#000000"/><text fill="#000000" font-family="sans-serif" font-size="14" lengthAdjust="spacing" textLength="80" x="1127.5" y="55.2285">EventEmitter</text><rect fill="#FFFFFF" height="17.0938" style="stroke:#181818;stroke-width:1.0;stroke-dasharray:2.0,2.0;" width="9" x="1215.5" y="30.5"/><text fill="#000000" font-family="sans-serif" font-size="12" font-style="italic" lengthAdjust="spacing" textLength="7" x="1216.5" y="43.957">T</text><line style="stroke:#181818;stroke-width:0.5;" x1="1099.5" x2="1220.5" y1="65.5" y2="65.5"/><line style="stroke:#181818;stroke-width:0.5;" x1="1099.5" x2="1220.5" y1="73.5" y2="73.5"/></g><!--class TasksService--><g id="elem_TasksService"><rect codeLine="5" fill="#F1F1F1" height="153.6563" id="TasksService" rx="2.5" ry="2.5" style="stroke:#181818;stroke-width:0.5;" width="336" x="1108" y="667"/><ellipse cx="1229.25" cy="683" fill="#ADD1B2" rx="11" ry="11" style="stroke:#181818;stroke-width:1.0;"/><path d="M1232.0156,678.875 Q1232.1719,678.6563 1232.3594,678.5469 Q1232.5469,678.4375 1232.7656,678.4375 Q1233.1406,678.4375 1233.375,678.7031 Q1233.6094,678.9531 1233.6094,679.5625 L1233.6094,681.0156 Q1233.6094,681.625 1233.375,681.8906 Q1233.1406,682.1563 1232.7656,682.1563 Q1232.4219,682.1563 1232.2188,681.9531 Q1232.0156,681.7656 1231.9063,681.25 Q1231.8594,680.8906 1231.6719,680.7031 Q1231.3438,680.3281 1230.7344,680.1094 Q1230.125,679.8906 1229.5,679.8906 Q1228.7344,679.8906 1228.0938,680.2188 Q1227.4688,680.5469 1226.9688,681.2969 Q1226.4844,682.0469 1226.4844,683.0781 L1226.4844,684.1719 Q1226.4844,685.4063 1227.375,686.2344 Q1228.2656,687.0469 1229.8594,687.0469 Q1230.7969,687.0469 1231.4531,686.7969 Q1231.8438,686.6406 1232.2656,686.2031 Q1232.5313,685.9375 1232.6719,685.8594 Q1232.8281,685.7813 1233.0313,685.7813 Q1233.3594,685.7813 1233.6094,686.0469 Q1233.875,686.2969 1233.875,686.6406 Q1233.875,686.9844 1233.5313,687.3906 Q1233.0313,687.9688 1232.2344,688.2969 Q1231.1563,688.75 1229.8594,688.75 Q1228.3438,688.75 1227.1406,688.125 Q1226.1563,687.625 1225.4688,686.5625 Q1224.7813,685.4844 1224.7813,684.2031 L1224.7813,683.0469 Q1224.7813,681.7188 1225.3906,680.5781 Q1226.0156,679.4219 1227.1094,678.8125 Q1228.2031,678.1875 1229.4375,678.1875 Q1230.1719,678.1875 1230.8125,678.3594 Q1231.4688,678.5156 1232.0156,678.875 Z " fill="#000000"/><text fill="#000000" font-family="sans-serif" font-size="14" lengthAdjust="spacing" textLength="85" x="1249.75" y="688.7285">TasksService</text><line style="stroke:#181818;stroke-width:0.5;" x1="1109" x2="1443" y1="699" y2="699"/><rect fill="none" height="6" style="stroke:#C82930;stroke-width:1.0;" width="6" x="1116" y="710.3047"/><text fill="#000000" font-family="sans-serif" font-size="14" lengthAdjust="spacing" textLength="80" x="1128" y="717.5332">tasks: Task[]</text><line style="stroke:#181818;stroke-width:0.5;" x1="1109" x2="1443" y1="724.6094" y2="724.6094"/><ellipse cx="1119" cy="738.9141" fill="#84BE84" rx="3" ry="3" style="stroke:#038048;stroke-width:1.0;"/><text fill="#000000" font-family="sans-serif" font-size="14" lengthAdjust="spacing" textLength="226" x="1128" y="743.1426">getUserTasks(userId: string): Task[]</text><ellipse cx="1119" cy="756.5234" fill="#84BE84" rx="3" ry="3" style="stroke:#038048;stroke-width:1.0;"/><text fill="#000000" font-family="sans-serif" font-size="14" lengthAdjust="spacing" textLength="310" x="1128" y="760.752">addTask(task: NewTaskData, userId: string): void</text><ellipse cx="1119" cy="774.1328" fill="#84BE84" rx="3" ry="3" style="stroke:#038048;stroke-width:1.0;"/><text fill="#000000" font-family="sans-serif" font-size="14" lengthAdjust="spacing" textLength="202" x="1128" y="778.3613">removeTask(taskId: string): void</text><ellipse cx="1119" cy="791.7422" fill="#84BE84" rx="3" ry="3" style="stroke:#038048;stroke-width:1.0;"/><text fill="#000000" font-family="sans-serif" font-size="14" lengthAdjust="spacing" textLength="184" x="1128" y="795.9707">updateTask(task: Task): void</text><rect fill="#F24D5C" height="6" style="stroke:#C82930;stroke-width:1.0;" width="6" x="1116" y="806.3516"/><text fill="#000000" font-family="sans-serif" font-size="14" lengthAdjust="spacing" textLength="112" x="1128" y="813.5801">saveTasks(): void</text></g><!--class AppModule--><g id="elem_AppModule"><rect codeLine="14" fill="#F1F1F1" height="48" id="AppModule" rx="2.5" ry="2.5" style="stroke:#181818;stroke-width:0.5;" width="103" x="1980.5" y="33.5"/><ellipse cx="1995.5" cy="49.5" fill="#ADD1B2" rx="11" ry="11" style="stroke:#181818;stroke-width:1.0;"/><path d="M1998.2656,45.375 Q1998.4219,45.1563 1998.6094,45.0469 Q1998.7969,44.9375 1999.0156,44.9375 Q1999.3906,44.9375 1999.625,45.2031 Q1999.8594,45.4531 1999.8594,46.0625 L1999.8594,47.5156 Q1999.8594,48.125 1999.625,48.3906 Q1999.3906,48.6563 1999.0156,48.6563 Q1998.6719,48.6563 1998.4688,48.4531 Q1998.2656,48.2656 1998.1563,47.75 Q1998.1094,47.3906 1997.9219,47.2031 Q1997.5938,46.8281 1996.9844,46.6094 Q1996.375,46.3906 1995.75,46.3906 Q1994.9844,46.3906 1994.3438,46.7188 Q1993.7188,47.0469 1993.2188,47.7969 Q1992.7344,48.5469 1992.7344,49.5781 L1992.7344,50.6719 Q1992.7344,51.9063 1993.625,52.7344 Q1994.5156,53.5469 1996.1094,53.5469 Q1997.0469,53.5469 1997.7031,53.2969 Q1998.0938,53.1406 1998.5156,52.7031 Q1998.7813,52.4375 1998.9219,52.3594 Q1999.0781,52.2813 1999.2813,52.2813 Q1999.6094,52.2813 1999.8594,52.5469 Q2000.125,52.7969 2000.125,53.1406 Q2000.125,53.4844 1999.7813,53.8906 Q1999.2813,54.4688 1998.4844,54.7969 Q1997.4063,55.25 1996.1094,55.25 Q1994.5938,55.25 1993.3906,54.625 Q1992.4063,54.125 1991.7188,53.0625 Q1991.0313,51.9844 1991.0313,50.7031 L1991.0313,49.5469 Q1991.0313,48.2188 1991.6406,47.0781 Q1992.2656,45.9219 1993.3594,45.3125 Q1994.4531,44.6875 1995.6875,44.6875 Q1996.4219,44.6875 1997.0625,44.8594 Q1997.7188,45.0156 1998.2656,45.375 Z " fill="#000000"/><text fill="#000000" font-family="sans-serif" font-size="14" lengthAdjust="spacing" textLength="71" x="2009.5" y="55.2285">AppModule</text><line style="stroke:#181818;stroke-width:0.5;" x1="1981.5" x2="2082.5" y1="65.5" y2="65.5"/><line style="stroke:#181818;stroke-width:0.5;" x1="1981.5" x2="2082.5" y1="73.5" y2="73.5"/></g><!--class TasksModule--><g id="elem_TasksModule"><rect codeLine="17" fill="#F1F1F1" height="48" id="TasksModule" rx="2.5" ry="2.5" style="stroke:#181818;stroke-width:0.5;" width="116" x="1258" y="230"/><ellipse cx="1273" cy="246" fill="#ADD1B2" rx="11" ry="11" style="stroke:#181818;stroke-width:1.0;"/><path d="M1275.7656,241.875 Q1275.9219,241.6563 1276.1094,241.5469 Q1276.2969,241.4375 1276.5156,241.4375 Q1276.8906,241.4375 1277.125,241.7031 Q1277.3594,241.9531 1277.3594,242.5625 L1277.3594,244.0156 Q1277.3594,244.625 1277.125,244.8906 Q1276.8906,245.1563 1276.5156,245.1563 Q1276.1719,245.1563 1275.9688,244.9531 Q1275.7656,244.7656 1275.6563,244.25 Q1275.6094,243.8906 1275.4219,243.7031 Q1275.0938,243.3281 1274.4844,243.1094 Q1273.875,242.8906 1273.25,242.8906 Q1272.4844,242.8906 1271.8438,243.2188 Q1271.2188,243.5469 1270.7188,244.2969 Q1270.2344,245.0469 1270.2344,246.0781 L1270.2344,247.1719 Q1270.2344,248.4063 1271.125,249.2344 Q1272.0156,250.0469 1273.6094,250.0469 Q1274.5469,250.0469 1275.2031,249.7969 Q1275.5938,249.6406 1276.0156,249.2031 Q1276.2813,248.9375 1276.4219,248.8594 Q1276.5781,248.7813 1276.7813,248.7813 Q1277.1094,248.7813 1277.3594,249.0469 Q1277.625,249.2969 1277.625,249.6406 Q1277.625,249.9844 1277.2813,250.3906 Q1276.7813,250.9688 1275.9844,251.2969 Q1274.9063,251.75 1273.6094,251.75 Q1272.0938,251.75 1270.8906,251.125 Q1269.9063,250.625 1269.2188,249.5625 Q1268.5313,248.4844 1268.5313,247.2031 L1268.5313,246.0469 Q1268.5313,244.7188 1269.1406,243.5781 Q1269.7656,242.4219 1270.8594,241.8125 Q1271.9531,241.1875 1273.1875,241.1875 Q1273.9219,241.1875 1274.5625,241.3594 Q1275.2188,241.5156 1275.7656,241.875 Z " fill="#000000"/><text fill="#000000" font-family="sans-serif" font-size="14" lengthAdjust="spacing" textLength="84" x="1287" y="251.7285">TasksModule</text><line style="stroke:#181818;stroke-width:0.5;" x1="1259" x2="1373" y1="262" y2="262"/><line style="stroke:#181818;stroke-width:0.5;" x1="1259" x2="1373" y1="270" y2="270"/></g><!--class SharedModule--><g id="elem_SharedModule"><rect codeLine="20" fill="#F1F1F1" height="48" id="SharedModule" rx="2.5" ry="2.5" style="stroke:#181818;stroke-width:0.5;" width="124" x="1661" y="470.5"/><ellipse cx="1676" cy="486.5" fill="#ADD1B2" rx="11" ry="11" style="stroke:#181818;stroke-width:1.0;"/><path d="M1678.7656,482.375 Q1678.9219,482.1563 1679.1094,482.0469 Q1679.2969,481.9375 1679.5156,481.9375 Q1679.8906,481.9375 1680.125,482.2031 Q1680.3594,482.4531 1680.3594,483.0625 L1680.3594,484.5156 Q1680.3594,485.125 1680.125,485.3906 Q1679.8906,485.6563 1679.5156,485.6563 Q1679.1719,485.6563 1678.9688,485.4531 Q1678.7656,485.2656 1678.6563,484.75 Q1678.6094,484.3906 1678.4219,484.2031 Q1678.0938,483.8281 1677.4844,483.6094 Q1676.875,483.3906 1676.25,483.3906 Q1675.4844,483.3906 1674.8438,483.7188 Q1674.2188,484.0469 1673.7188,484.7969 Q1673.2344,485.5469 1673.2344,486.5781 L1673.2344,487.6719 Q1673.2344,488.9063 1674.125,489.7344 Q1675.0156,490.5469 1676.6094,490.5469 Q1677.5469,490.5469 1678.2031,490.2969 Q1678.5938,490.1406 1679.0156,489.7031 Q1679.2813,489.4375 1679.4219,489.3594 Q1679.5781,489.2813 1679.7813,489.2813 Q1680.1094,489.2813 1680.3594,489.5469 Q1680.625,489.7969 1680.625,490.1406 Q1680.625,490.4844 1680.2813,490.8906 Q1679.7813,491.4688 1678.9844,491.7969 Q1677.9063,492.25 1676.6094,492.25 Q1675.0938,492.25 1673.8906,491.625 Q1672.9063,491.125 1672.2188,490.0625 Q1671.5313,488.9844 1671.5313,487.7031 L1671.5313,486.5469 Q1671.5313,485.2188 1672.1406,484.0781 Q1672.7656,482.9219 1673.8594,482.3125 Q1674.9531,481.6875 1676.1875,481.6875 Q1676.9219,481.6875 1677.5625,481.8594 Q1678.2188,482.0156 1678.7656,482.375 Z " fill="#000000"/><text fill="#000000" font-family="sans-serif" font-size="14" lengthAdjust="spacing" textLength="92" x="1690" y="492.2285">SharedModule</text><line style="stroke:#181818;stroke-width:0.5;" x1="1662" x2="1784" y1="502.5" y2="502.5"/><line style="stroke:#181818;stroke-width:0.5;" x1="1662" x2="1784" y1="510.5" y2="510.5"/></g><!--class AppComponent--><g id="elem_AppComponent"><rect codeLine="23" fill="#F1F1F1" height="118.4375" id="AppComponent" rx="2.5" ry="2.5" style="stroke:#181818;stroke-width:0.5;" width="224" x="1841" y="195"/><ellipse cx="1899.75" cy="211" fill="#ADD1B2" rx="11" ry="11" style="stroke:#181818;stroke-width:1.0;"/><path d="M1902.5156,206.875 Q1902.6719,206.6563 1902.8594,206.5469 Q1903.0469,206.4375 1903.2656,206.4375 Q1903.6406,206.4375 1903.875,206.7031 Q1904.1094,206.9531 1904.1094,207.5625 L1904.1094,209.0156 Q1904.1094,209.625 1903.875,209.8906 Q1903.6406,210.1563 1903.2656,210.1563 Q1902.9219,210.1563 1902.7188,209.9531 Q1902.5156,209.7656 1902.4063,209.25 Q1902.3594,208.8906 1902.1719,208.7031 Q1901.8438,208.3281 1901.2344,208.1094 Q1900.625,207.8906 1900,207.8906 Q1899.2344,207.8906 1898.5938,208.2188 Q1897.9688,208.5469 1897.4688,209.2969 Q1896.9844,210.0469 1896.9844,211.0781 L1896.9844,212.1719 Q1896.9844,213.4063 1897.875,214.2344 Q1898.7656,215.0469 1900.3594,215.0469 Q1901.2969,215.0469 1901.9531,214.7969 Q1902.3438,214.6406 1902.7656,214.2031 Q1903.0313,213.9375 1903.1719,213.8594 Q1903.3281,213.7813 1903.5313,213.7813 Q1903.8594,213.7813 1904.1094,214.0469 Q1904.375,214.2969 1904.375,214.6406 Q1904.375,214.9844 1904.0313,215.3906 Q1903.5313,215.9688 1902.7344,216.2969 Q1901.6563,216.75 1900.3594,216.75 Q1898.8438,216.75 1897.6406,216.125 Q1896.6563,215.625 1895.9688,214.5625 Q1895.2813,213.4844 1895.2813,212.2031 L1895.2813,211.0469 Q1895.2813,209.7188 1895.8906,208.5781 Q1896.5156,207.4219 1897.6094,206.8125 Q1898.7031,206.1875 1899.9375,206.1875 Q1900.6719,206.1875 1901.3125,206.3594 Q1901.9688,206.5156 1902.5156,206.875 Z " fill="#000000"/><text fill="#000000" font-family="sans-serif" font-size="14" lengthAdjust="spacing" textLength="98" x="1920.25" y="216.7285">AppComponent</text><line style="stroke:#181818;stroke-width:0.5;" x1="1842" x2="2064" y1="227" y2="227"/><ellipse cx="1852" cy="241.3047" fill="none" rx="3" ry="3" style="stroke:#038048;stroke-width:1.0;"/><text fill="#000000" font-family="sans-serif" font-size="14" lengthAdjust="spacing" textLength="80" x="1861" y="245.5332">users: User[]</text><ellipse cx="1852" cy="258.9141" fill="none" rx="3" ry="3" style="stroke:#038048;stroke-width:1.0;"/><text fill="#000000" font-family="sans-serif" font-size="14" lengthAdjust="spacing" textLength="144" x="1861" y="263.1426">selectedUserId?: string</text><ellipse cx="1852" cy="276.5234" fill="none" rx="3" ry="3" style="stroke:#038048;stroke-width:1.0;"/><text fill="#000000" font-family="sans-serif" font-size="14" lengthAdjust="spacing" textLength="119" x="1861" y="280.752">selectedUser: User</text><line style="stroke:#181818;stroke-width:0.5;" x1="1842" x2="2064" y1="287.8281" y2="287.8281"/><ellipse cx="1852" cy="302.1328" fill="#84BE84" rx="3" ry="3" style="stroke:#038048;stroke-width:1.0;"/><text fill="#000000" font-family="sans-serif" font-size="14" lengthAdjust="spacing" textLength="198" x="1861" y="306.3613">onSelectedUser(id: string): void</text></g><!--class UserComponent--><g id="elem_UserComponent"><rect codeLine="30" fill="#F1F1F1" height="136.0469" id="UserComponent" rx="2.5" ry="2.5" style="stroke:#181818;stroke-width:0.5;" width="247" x="2286.5" y="186"/><ellipse cx="2354.75" cy="202" fill="#ADD1B2" rx="11" ry="11" style="stroke:#181818;stroke-width:1.0;"/><path d="M2357.5156,197.875 Q2357.6719,197.6563 2357.8594,197.5469 Q2358.0469,197.4375 2358.2656,197.4375 Q2358.6406,197.4375 2358.875,197.7031 Q2359.1094,197.9531 2359.1094,198.5625 L2359.1094,200.0156 Q2359.1094,200.625 2358.875,200.8906 Q2358.6406,201.1563 2358.2656,201.1563 Q2357.9219,201.1563 2357.7188,200.9531 Q2357.5156,200.7656 2357.4063,200.25 Q2357.3594,199.8906 2357.1719,199.7031 Q2356.8438,199.3281 2356.2344,199.1094 Q2355.625,198.8906 2355,198.8906 Q2354.2344,198.8906 2353.5938,199.2188 Q2352.9688,199.5469 2352.4688,200.2969 Q2351.9844,201.0469 2351.9844,202.0781 L2351.9844,203.1719 Q2351.9844,204.4063 2352.875,205.2344 Q2353.7656,206.0469 2355.3594,206.0469 Q2356.2969,206.0469 2356.9531,205.7969 Q2357.3438,205.6406 2357.7656,205.2031 Q2358.0313,204.9375 2358.1719,204.8594 Q2358.3281,204.7813 2358.5313,204.7813 Q2358.8594,204.7813 2359.1094,205.0469 Q2359.375,205.2969 2359.375,205.6406 Q2359.375,205.9844 2359.0313,206.3906 Q2358.5313,206.9688 2357.7344,207.2969 Q2356.6563,207.75 2355.3594,207.75 Q2353.8438,207.75 2352.6406,207.125 Q2351.6563,206.625 2350.9688,205.5625 Q2350.2813,204.4844 2350.2813,203.2031 L2350.2813,202.0469 Q2350.2813,200.7188 2350.8906,199.5781 Q2351.5156,198.4219 2352.6094,197.8125 Q2353.7031,197.1875 2354.9375,197.1875 Q2355.6719,197.1875 2356.3125,197.3594 Q2356.9688,197.5156 2357.5156,197.875 Z " fill="#000000"/><text fill="#000000" font-family="sans-serif" font-size="14" lengthAdjust="spacing" textLength="102" x="2375.25" y="207.7285">UserComponent</text><line style="stroke:#181818;stroke-width:0.5;" x1="2287.5" x2="2532.5" y1="218" y2="218"/><ellipse cx="2297.5" cy="232.3047" fill="none" rx="3" ry="3" style="stroke:#038048;stroke-width:1.0;"/><text fill="#000000" font-family="sans-serif" font-size="14" lengthAdjust="spacing" textLength="65" x="2306.5" y="236.5332">user: User</text><ellipse cx="2297.5" cy="249.9141" fill="none" rx="3" ry="3" style="stroke:#038048;stroke-width:1.0;"/><text fill="#000000" font-family="sans-serif" font-size="14" lengthAdjust="spacing" textLength="124" x="2306.5" y="254.1426">isSelected: boolean</text><ellipse cx="2297.5" cy="267.5234" fill="none" rx="3" ry="3" style="stroke:#038048;stroke-width:1.0;"/><text fill="#000000" font-family="sans-serif" font-size="14" lengthAdjust="spacing" textLength="221" x="2306.5" y="271.752">selectedUser: EventEmitter&lt;string&gt;</text><line style="stroke:#181818;stroke-width:0.5;" x1="2287.5" x2="2532.5" y1="278.8281" y2="278.8281"/><ellipse cx="2297.5" cy="293.1328" fill="#84BE84" rx="3" ry="3" style="stroke:#038048;stroke-width:1.0;"/><text fill="#000000" font-family="sans-serif" font-size="14" lengthAdjust="spacing" textLength="135" x="2306.5" y="297.3613">onClickedUser(): void</text><ellipse cx="2297.5" cy="310.7422" fill="#84BE84" rx="3" ry="3" style="stroke:#038048;stroke-width:1.0;"/><text fill="#000000" font-family="sans-serif" font-size="14" lengthAdjust="spacing" textLength="120" x="2306.5" y="314.9707">imagePath(): string</text></g><!--class TasksComponent--><g id="elem_TasksComponent"><rect codeLine="38" fill="#F1F1F1" height="171.2656" id="TasksComponent" rx="2.5" ry="2.5" style="stroke:#181818;stroke-width:0.5;" width="192" x="690" y="409"/><ellipse cx="727.05" cy="425" fill="#ADD1B2" rx="11" ry="11" style="stroke:#181818;stroke-width:1.0;"/><path d="M729.8156,420.875 Q729.9719,420.6563 730.1594,420.5469 Q730.3469,420.4375 730.5656,420.4375 Q730.9406,420.4375 731.175,420.7031 Q731.4094,420.9531 731.4094,421.5625 L731.4094,423.0156 Q731.4094,423.625 731.175,423.8906 Q730.9406,424.1563 730.5656,424.1563 Q730.2219,424.1563 730.0188,423.9531 Q729.8156,423.7656 729.7063,423.25 Q729.6594,422.8906 729.4719,422.7031 Q729.1438,422.3281 728.5344,422.1094 Q727.925,421.8906 727.3,421.8906 Q726.5344,421.8906 725.8938,422.2188 Q725.2688,422.5469 724.7688,423.2969 Q724.2844,424.0469 724.2844,425.0781 L724.2844,426.1719 Q724.2844,427.4063 725.175,428.2344 Q726.0656,429.0469 727.6594,429.0469 Q728.5969,429.0469 729.2531,428.7969 Q729.6438,428.6406 730.0656,428.2031 Q730.3313,427.9375 730.4719,427.8594 Q730.6281,427.7813 730.8313,427.7813 Q731.1594,427.7813 731.4094,428.0469 Q731.675,428.2969 731.675,428.6406 Q731.675,428.9844 731.3313,429.3906 Q730.8313,429.9688 730.0344,430.2969 Q728.9563,430.75 727.6594,430.75 Q726.1438,430.75 724.9406,430.125 Q723.9563,429.625 723.2688,428.5625 Q722.5813,427.4844 722.5813,426.2031 L722.5813,425.0469 Q722.5813,423.7188 723.1906,422.5781 Q723.8156,421.4219 724.9094,420.8125 Q726.0031,420.1875 727.2375,420.1875 Q727.9719,420.1875 728.6125,420.3594 Q729.2688,420.5156 729.8156,420.875 Z " fill="#000000"/><text fill="#000000" font-family="sans-serif" font-size="14" lengthAdjust="spacing" textLength="111" x="745.95" y="430.7285">TasksComponent</text><line style="stroke:#181818;stroke-width:0.5;" x1="691" x2="881" y1="441" y2="441"/><ellipse cx="701" cy="455.3047" fill="none" rx="3" ry="3" style="stroke:#038048;stroke-width:1.0;"/><text fill="#000000" font-family="sans-serif" font-size="14" lengthAdjust="spacing" textLength="161" x="710" y="459.5332">selectedUserName: string</text><ellipse cx="701" cy="472.9141" fill="none" rx="3" ry="3" style="stroke:#038048;stroke-width:1.0;"/><text fill="#000000" font-family="sans-serif" font-size="14" lengthAdjust="spacing" textLength="136" x="710" y="477.1426">selectedUserId: string</text><ellipse cx="701" cy="490.5234" fill="none" rx="3" ry="3" style="stroke:#038048;stroke-width:1.0;"/><text fill="#000000" font-family="sans-serif" font-size="14" lengthAdjust="spacing" textLength="144" x="710" y="494.752">isAddingTask: boolean</text><rect fill="none" height="6" style="stroke:#C82930;stroke-width:1.0;" width="6" x="698" y="505.1328"/><text fill="#000000" font-family="sans-serif" font-size="14" lengthAdjust="spacing" textLength="166" x="710" y="512.3613">taskService: TasksService</text><line style="stroke:#181818;stroke-width:0.5;" x1="691" x2="881" y1="519.4375" y2="519.4375"/><ellipse cx="701" cy="533.7422" fill="#84BE84" rx="3" ry="3" style="stroke:#038048;stroke-width:1.0;"/><text fill="#000000" font-family="sans-serif" font-size="14" lengthAdjust="spacing" textLength="166" x="710" y="537.9707">getTasksForUser(): Task[]</text><ellipse cx="701" cy="551.3516" fill="#84BE84" rx="3" ry="3" style="stroke:#038048;stroke-width:1.0;"/><text fill="#000000" font-family="sans-serif" font-size="14" lengthAdjust="spacing" textLength="165" x="710" y="555.5801">onStartAddingTask(): void</text><ellipse cx="701" cy="568.9609" fill="#84BE84" rx="3" ry="3" style="stroke:#038048;stroke-width:1.0;"/><text fill="#000000" font-family="sans-serif" font-size="14" lengthAdjust="spacing" textLength="152" x="710" y="573.1895">onCloseAddTask(): void</text></g><!--class TaskComponent--><g id="elem_TaskComponent"><rect codeLine="48" fill="#F1F1F1" height="118.4375" id="TaskComponent" rx="2.5" ry="2.5" style="stroke:#181818;stroke-width:0.5;" width="192" x="986" y="435.5"/><ellipse cx="1026.2" cy="451.5" fill="#ADD1B2" rx="11" ry="11" style="stroke:#181818;stroke-width:1.0;"/><path d="M1028.9656,447.375 Q1029.1219,447.1563 1029.3094,447.0469 Q1029.4969,446.9375 1029.7156,446.9375 Q1030.0906,446.9375 1030.325,447.2031 Q1030.5594,447.4531 1030.5594,448.0625 L1030.5594,449.5156 Q1030.5594,450.125 1030.325,450.3906 Q1030.0906,450.6563 1029.7156,450.6563 Q1029.3719,450.6563 1029.1688,450.4531 Q1028.9656,450.2656 1028.8563,449.75 Q1028.8094,449.3906 1028.6219,449.2031 Q1028.2938,448.8281 1027.6844,448.6094 Q1027.075,448.3906 1026.45,448.3906 Q1025.6844,448.3906 1025.0438,448.7188 Q1024.4188,449.0469 1023.9188,449.7969 Q1023.4344,450.5469 1023.4344,451.5781 L1023.4344,452.6719 Q1023.4344,453.9063 1024.325,454.7344 Q1025.2156,455.5469 1026.8094,455.5469 Q1027.7469,455.5469 1028.4031,455.2969 Q1028.7938,455.1406 1029.2156,454.7031 Q1029.4813,454.4375 1029.6219,454.3594 Q1029.7781,454.2813 1029.9813,454.2813 Q1030.3094,454.2813 1030.5594,454.5469 Q1030.825,454.7969 1030.825,455.1406 Q1030.825,455.4844 1030.4813,455.8906 Q1029.9813,456.4688 1029.1844,456.7969 Q1028.1063,457.25 1026.8094,457.25 Q1025.2938,457.25 1024.0906,456.625 Q1023.1063,456.125 1022.4188,455.0625 Q1021.7313,453.9844 1021.7313,452.7031 L1021.7313,451.5469 Q1021.7313,450.2188 1022.3406,449.0781 Q1022.9656,447.9219 1024.0594,447.3125 Q1025.1531,446.6875 1026.3875,446.6875 Q1027.1219,446.6875 1027.7625,446.8594 Q1028.4188,447.0156 1028.9656,447.375 Z " fill="#000000"/><text fill="#000000" font-family="sans-serif" font-size="14" lengthAdjust="spacing" textLength="104" x="1045.8" y="457.2285">TaskComponent</text><line style="stroke:#181818;stroke-width:0.5;" x1="987" x2="1177" y1="467.5" y2="467.5"/><ellipse cx="997" cy="481.8047" fill="none" rx="3" ry="3" style="stroke:#038048;stroke-width:1.0;"/><text fill="#000000" font-family="sans-serif" font-size="14" lengthAdjust="spacing" textLength="65" x="1006" y="486.0332">task: Task</text><rect fill="none" height="6" style="stroke:#C82930;stroke-width:1.0;" width="6" x="994" y="496.4141"/><text fill="#000000" font-family="sans-serif" font-size="14" lengthAdjust="spacing" textLength="166" x="1006" y="503.6426">taskService: TasksService</text><line style="stroke:#181818;stroke-width:0.5;" x1="987" x2="1177" y1="510.7188" y2="510.7188"/><ellipse cx="997" cy="525.0234" fill="#84BE84" rx="3" ry="3" style="stroke:#038048;stroke-width:1.0;"/><text fill="#000000" font-family="sans-serif" font-size="14" lengthAdjust="spacing" textLength="120" x="1006" y="529.252">onComplete(): void</text><ellipse cx="997" cy="542.6328" fill="#84BE84" rx="3" ry="3" style="stroke:#038048;stroke-width:1.0;"/><text fill="#000000" font-family="sans-serif" font-size="14" lengthAdjust="spacing" textLength="101" x="1006" y="546.8613">onDelete(): void</text></g><!--class NewTaskComponent--><g id="elem_NewTaskComponent"><rect codeLine="55" fill="#F1F1F1" height="188.875" id="NewTaskComponent" rx="2.5" ry="2.5" style="stroke:#181818;stroke-width:0.5;" width="205" x="1213.5" y="400"/><ellipse cx="1247.85" cy="416" fill="#ADD1B2" rx="11" ry="11" style="stroke:#181818;stroke-width:1.0;"/><path d="M1250.6156,411.875 Q1250.7719,411.6563 1250.9594,411.5469 Q1251.1469,411.4375 1251.3656,411.4375 Q1251.7406,411.4375 1251.975,411.7031 Q1252.2094,411.9531 1252.2094,412.5625 L1252.2094,414.0156 Q1252.2094,414.625 1251.975,414.8906 Q1251.7406,415.1563 1251.3656,415.1563 Q1251.0219,415.1563 1250.8188,414.9531 Q1250.6156,414.7656 1250.5063,414.25 Q1250.4594,413.8906 1250.2719,413.7031 Q1249.9438,413.3281 1249.3344,413.1094 Q1248.725,412.8906 1248.1,412.8906 Q1247.3344,412.8906 1246.6938,413.2188 Q1246.0688,413.5469 1245.5688,414.2969 Q1245.0844,415.0469 1245.0844,416.0781 L1245.0844,417.1719 Q1245.0844,418.4063 1245.975,419.2344 Q1246.8656,420.0469 1248.4594,420.0469 Q1249.3969,420.0469 1250.0531,419.7969 Q1250.4438,419.6406 1250.8656,419.2031 Q1251.1313,418.9375 1251.2719,418.8594 Q1251.4281,418.7813 1251.6313,418.7813 Q1251.9594,418.7813 1252.2094,419.0469 Q1252.475,419.2969 1252.475,419.6406 Q1252.475,419.9844 1252.1313,420.3906 Q1251.6313,420.9688 1250.8344,421.2969 Q1249.7563,421.75 1248.4594,421.75 Q1246.9438,421.75 1245.7406,421.125 Q1244.7563,420.625 1244.0688,419.5625 Q1243.3813,418.4844 1243.3813,417.2031 L1243.3813,416.0469 Q1243.3813,414.7188 1243.9906,413.5781 Q1244.6156,412.4219 1245.7094,411.8125 Q1246.8031,411.1875 1248.0375,411.1875 Q1248.7719,411.1875 1249.4125,411.3594 Q1250.0688,411.5156 1250.6156,411.875 Z " fill="#000000"/><text fill="#000000" font-family="sans-serif" font-size="14" lengthAdjust="spacing" textLength="130" x="1266.15" y="421.7285">NewTaskComponent</text><line style="stroke:#181818;stroke-width:0.5;" x1="1214.5" x2="1417.5" y1="432" y2="432"/><ellipse cx="1224.5" cy="446.3047" fill="none" rx="3" ry="3" style="stroke:#038048;stroke-width:1.0;"/><text fill="#000000" font-family="sans-serif" font-size="14" lengthAdjust="spacing" textLength="82" x="1233.5" y="450.5332">userId: string</text><ellipse cx="1224.5" cy="463.9141" fill="none" rx="3" ry="3" style="stroke:#038048;stroke-width:1.0;"/><text fill="#000000" font-family="sans-serif" font-size="14" lengthAdjust="spacing" textLength="163" x="1233.5" y="468.1426">close: EventEmitter&lt;void&gt;</text><ellipse cx="1224.5" cy="481.5234" fill="none" rx="3" ry="3" style="stroke:#038048;stroke-width:1.0;"/><text fill="#000000" font-family="sans-serif" font-size="14" lengthAdjust="spacing" textLength="119" x="1233.5" y="485.752">enteredTitle: string</text><ellipse cx="1224.5" cy="499.1328" fill="none" rx="3" ry="3" style="stroke:#038048;stroke-width:1.0;"/><text fill="#000000" font-family="sans-serif" font-size="14" lengthAdjust="spacing" textLength="151" x="1233.5" y="503.3613">enteredSummary: string</text><ellipse cx="1224.5" cy="516.7422" fill="none" rx="3" ry="3" style="stroke:#038048;stroke-width:1.0;"/><text fill="#000000" font-family="sans-serif" font-size="14" lengthAdjust="spacing" textLength="148" x="1233.5" y="520.9707">enteredDueDate: string</text><rect fill="none" height="6" style="stroke:#C82930;stroke-width:1.0;" width="6" x="1221.5" y="531.3516"/><text fill="#000000" font-family="sans-serif" font-size="14" lengthAdjust="spacing" textLength="166" x="1233.5" y="538.5801">taskService: TasksService</text><line style="stroke:#181818;stroke-width:0.5;" x1="1214.5" x2="1417.5" y1="545.6563" y2="545.6563"/><ellipse cx="1224.5" cy="559.9609" fill="#84BE84" rx="3" ry="3" style="stroke:#038048;stroke-width:1.0;"/><text fill="#000000" font-family="sans-serif" font-size="14" lengthAdjust="spacing" textLength="103" x="1233.5" y="564.1895">onSubmit(): void</text><ellipse cx="1224.5" cy="577.5703" fill="#84BE84" rx="3" ry="3" style="stroke:#038048;stroke-width:1.0;"/><text fill="#000000" font-family="sans-serif" font-size="14" lengthAdjust="spacing" textLength="179" x="1233.5" y="581.7988">onCancelAddingTask(): void</text></g><!--class CardComponent--><g id="elem_CardComponent"><rect codeLine="66" fill="#F1F1F1" height="65.6094" id="CardComponent" rx="2.5" ry="2.5" style="stroke:#181818;stroke-width:0.5;" width="136" x="1794" y="711"/><ellipse cx="1809" cy="727" fill="#ADD1B2" rx="11" ry="11" style="stroke:#181818;stroke-width:1.0;"/><path d="M1811.7656,722.875 Q1811.9219,722.6563 1812.1094,722.5469 Q1812.2969,722.4375 1812.5156,722.4375 Q1812.8906,722.4375 1813.125,722.7031 Q1813.3594,722.9531 1813.3594,723.5625 L1813.3594,725.0156 Q1813.3594,725.625 1813.125,725.8906 Q1812.8906,726.1563 1812.5156,726.1563 Q1812.1719,726.1563 1811.9688,725.9531 Q1811.7656,725.7656 1811.6563,725.25 Q1811.6094,724.8906 1811.4219,724.7031 Q1811.0938,724.3281 1810.4844,724.1094 Q1809.875,723.8906 1809.25,723.8906 Q1808.4844,723.8906 1807.8438,724.2188 Q1807.2188,724.5469 1806.7188,725.2969 Q1806.2344,726.0469 1806.2344,727.0781 L1806.2344,728.1719 Q1806.2344,729.4063 1807.125,730.2344 Q1808.0156,731.0469 1809.6094,731.0469 Q1810.5469,731.0469 1811.2031,730.7969 Q1811.5938,730.6406 1812.0156,730.2031 Q1812.2813,729.9375 1812.4219,729.8594 Q1812.5781,729.7813 1812.7813,729.7813 Q1813.1094,729.7813 1813.3594,730.0469 Q1813.625,730.2969 1813.625,730.6406 Q1813.625,730.9844 1813.2813,731.3906 Q1812.7813,731.9688 1811.9844,732.2969 Q1810.9063,732.75 1809.6094,732.75 Q1808.0938,732.75 1806.8906,732.125 Q1805.9063,731.625 1805.2188,730.5625 Q1804.5313,729.4844 1804.5313,728.2031 L1804.5313,727.0469 Q1804.5313,725.7188 1805.1406,724.5781 Q1805.7656,723.4219 1806.8594,722.8125 Q1807.9531,722.1875 1809.1875,722.1875 Q1809.9219,722.1875 1810.5625,722.3594 Q1811.2188,722.5156 1811.7656,722.875 Z " fill="#000000"/><text fill="#000000" font-family="sans-serif" font-size="14" lengthAdjust="spacing" textLength="104" x="1823" y="732.7285">CardComponent</text><line style="stroke:#181818;stroke-width:0.5;" x1="1795" x2="1929" y1="743" y2="743"/><ellipse cx="1805" cy="757.3047" fill="none" rx="3" ry="3" style="stroke:#038048;stroke-width:1.0;"/><text fill="#000000" font-family="sans-serif" font-size="14" lengthAdjust="spacing" textLength="68" x="1814" y="761.5332">ng-content</text><line style="stroke:#181818;stroke-width:0.5;" x1="1795" x2="1929" y1="768.6094" y2="768.6094"/></g><!--class HeaderComponent--><g id="elem_HeaderComponent"><rect codeLine="70" fill="#F1F1F1" height="48" id="HeaderComponent" rx="2.5" ry="2.5" style="stroke:#181818;stroke-width:0.5;" width="151" x="2100.5" y="230"/><ellipse cx="2115.5" cy="246" fill="#ADD1B2" rx="11" ry="11" style="stroke:#181818;stroke-width:1.0;"/><path d="M2118.2656,241.875 Q2118.4219,241.6563 2118.6094,241.5469 Q2118.7969,241.4375 2119.0156,241.4375 Q2119.3906,241.4375 2119.625,241.7031 Q2119.8594,241.9531 2119.8594,242.5625 L2119.8594,244.0156 Q2119.8594,244.625 2119.625,244.8906 Q2119.3906,245.1563 2119.0156,245.1563 Q2118.6719,245.1563 2118.4688,244.9531 Q2118.2656,244.7656 2118.1563,244.25 Q2118.1094,243.8906 2117.9219,243.7031 Q2117.5938,243.3281 2116.9844,243.1094 Q2116.375,242.8906 2115.75,242.8906 Q2114.9844,242.8906 2114.3438,243.2188 Q2113.7188,243.5469 2113.2188,244.2969 Q2112.7344,245.0469 2112.7344,246.0781 L2112.7344,247.1719 Q2112.7344,248.4063 2113.625,249.2344 Q2114.5156,250.0469 2116.1094,250.0469 Q2117.0469,250.0469 2117.7031,249.7969 Q2118.0938,249.6406 2118.5156,249.2031 Q2118.7813,248.9375 2118.9219,248.8594 Q2119.0781,248.7813 2119.2813,248.7813 Q2119.6094,248.7813 2119.8594,249.0469 Q2120.125,249.2969 2120.125,249.6406 Q2120.125,249.9844 2119.7813,250.3906 Q2119.2813,250.9688 2118.4844,251.2969 Q2117.4063,251.75 2116.1094,251.75 Q2114.5938,251.75 2113.3906,251.125 Q2112.4063,250.625 2111.7188,249.5625 Q2111.0313,248.4844 2111.0313,247.2031 L2111.0313,246.0469 Q2111.0313,244.7188 2111.6406,243.5781 Q2112.2656,242.4219 2113.3594,241.8125 Q2114.4531,241.1875 2115.6875,241.1875 Q2116.4219,241.1875 2117.0625,241.3594 Q2117.7188,241.5156 2118.2656,241.875 Z " fill="#000000"/><text fill="#000000" font-family="sans-serif" font-size="14" lengthAdjust="spacing" textLength="119" x="2129.5" y="251.7285">HeaderComponent</text><line style="stroke:#181818;stroke-width:0.5;" x1="2101.5" x2="2250.5" y1="262" y2="262"/><line style="stroke:#181818;stroke-width:0.5;" x1="2101.5" x2="2250.5" y1="270" y2="270"/></g><!--class User--><g id="elem_User"><rect codeLine="73" fill="#F1F1F1" height="100.8281" id="User" rx="2.5" ry="2.5" style="stroke:#181818;stroke-width:0.5;" width="109" x="1256.5" y="7"/><ellipse cx="1293.1" cy="23" fill="#ADD1B2" rx="11" ry="11" style="stroke:#181818;stroke-width:1.0;"/><path d="M1295.8656,18.875 Q1296.0219,18.6563 1296.2094,18.5469 Q1296.3969,18.4375 1296.6156,18.4375 Q1296.9906,18.4375 1297.225,18.7031 Q1297.4594,18.9531 1297.4594,19.5625 L1297.4594,21.0156 Q1297.4594,21.625 1297.225,21.8906 Q1296.9906,22.1563 1296.6156,22.1563 Q1296.2719,22.1563 1296.0688,21.9531 Q1295.8656,21.7656 1295.7563,21.25 Q1295.7094,20.8906 1295.5219,20.7031 Q1295.1938,20.3281 1294.5844,20.1094 Q1293.975,19.8906 1293.35,19.8906 Q1292.5844,19.8906 1291.9438,20.2188 Q1291.3188,20.5469 1290.8188,21.2969 Q1290.3344,22.0469 1290.3344,23.0781 L1290.3344,24.1719 Q1290.3344,25.4063 1291.225,26.2344 Q1292.1156,27.0469 1293.7094,27.0469 Q1294.6469,27.0469 1295.3031,26.7969 Q1295.6938,26.6406 1296.1156,26.2031 Q1296.3813,25.9375 1296.5219,25.8594 Q1296.6781,25.7813 1296.8813,25.7813 Q1297.2094,25.7813 1297.4594,26.0469 Q1297.725,26.2969 1297.725,26.6406 Q1297.725,26.9844 1297.3813,27.3906 Q1296.8813,27.9688 1296.0844,28.2969 Q1295.0063,28.75 1293.7094,28.75 Q1292.1938,28.75 1290.9906,28.125 Q1290.0063,27.625 1289.3188,26.5625 Q1288.6313,25.4844 1288.6313,24.2031 L1288.6313,23.0469 Q1288.6313,21.7188 1289.2406,20.5781 Q1289.8656,19.4219 1290.9594,18.8125 Q1292.0531,18.1875 1293.2875,18.1875 Q1294.0219,18.1875 1294.6625,18.3594 Q1295.3188,18.5156 1295.8656,18.875 Z " fill="#000000"/><text fill="#000000" font-family="sans-serif" font-size="14" lengthAdjust="spacing" textLength="29" x="1311.9" y="28.7285">User</text><line style="stroke:#181818;stroke-width:0.5;" x1="1257.5" x2="1364.5" y1="39" y2="39"/><ellipse cx="1267.5" cy="53.3047" fill="none" rx="3" ry="3" style="stroke:#038048;stroke-width:1.0;"/><text fill="#000000" font-family="sans-serif" font-size="14" lengthAdjust="spacing" textLength="54" x="1276.5" y="57.5332">id: string</text><ellipse cx="1267.5" cy="70.9141" fill="none" rx="3" ry="3" style="stroke:#038048;stroke-width:1.0;"/><text fill="#000000" font-family="sans-serif" font-size="14" lengthAdjust="spacing" textLength="83" x="1276.5" y="75.1426">avatar: string</text><ellipse cx="1267.5" cy="88.5234" fill="none" rx="3" ry="3" style="stroke:#038048;stroke-width:1.0;"/><text fill="#000000" font-family="sans-serif" font-size="14" lengthAdjust="spacing" textLength="78" x="1276.5" y="92.752">name: string</text><line style="stroke:#181818;stroke-width:0.5;" x1="1257.5" x2="1364.5" y1="99.8281" y2="99.8281"/></g><!--class Task--><g id="elem_Task"><rect codeLine="79" fill="#F1F1F1" height="153.6563" id="Task" rx="2.5" ry="2.5" style="stroke:#181818;stroke-width:0.5;" width="150" x="7" y="667"/><ellipse cx="62.25" cy="683" fill="#ADD1B2" rx="11" ry="11" style="stroke:#181818;stroke-width:1.0;"/><path d="M65.0156,678.875 Q65.1719,678.6563 65.3594,678.5469 Q65.5469,678.4375 65.7656,678.4375 Q66.1406,678.4375 66.375,678.7031 Q66.6094,678.9531 66.6094,679.5625 L66.6094,681.0156 Q66.6094,681.625 66.375,681.8906 Q66.1406,682.1563 65.7656,682.1563 Q65.4219,682.1563 65.2188,681.9531 Q65.0156,681.7656 64.9063,681.25 Q64.8594,680.8906 64.6719,680.7031 Q64.3438,680.3281 63.7344,680.1094 Q63.125,679.8906 62.5,679.8906 Q61.7344,679.8906 61.0938,680.2188 Q60.4688,680.5469 59.9688,681.2969 Q59.4844,682.0469 59.4844,683.0781 L59.4844,684.1719 Q59.4844,685.4063 60.375,686.2344 Q61.2656,687.0469 62.8594,687.0469 Q63.7969,687.0469 64.4531,686.7969 Q64.8438,686.6406 65.2656,686.2031 Q65.5313,685.9375 65.6719,685.8594 Q65.8281,685.7813 66.0313,685.7813 Q66.3594,685.7813 66.6094,686.0469 Q66.875,686.2969 66.875,686.6406 Q66.875,686.9844 66.5313,687.3906 Q66.0313,687.9688 65.2344,688.2969 Q64.1563,688.75 62.8594,688.75 Q61.3438,688.75 60.1406,688.125 Q59.1563,687.625 58.4688,686.5625 Q57.7813,685.4844 57.7813,684.2031 L57.7813,683.0469 Q57.7813,681.7188 58.3906,680.5781 Q59.0156,679.4219 60.1094,678.8125 Q61.2031,678.1875 62.4375,678.1875 Q63.1719,678.1875 63.8125,678.3594 Q64.4688,678.5156 65.0156,678.875 Z " fill="#000000"/><text fill="#000000" font-family="sans-serif" font-size="14" lengthAdjust="spacing" textLength="31" x="82.75" y="688.7285">Task</text><line style="stroke:#181818;stroke-width:0.5;" x1="8" x2="156" y1="699" y2="699"/><ellipse cx="18" cy="713.3047" fill="none" rx="3" ry="3" style="stroke:#038048;stroke-width:1.0;"/><text fill="#000000" font-family="sans-serif" font-size="14" lengthAdjust="spacing" textLength="54" x="27" y="717.5332">id: string</text><ellipse cx="18" cy="730.9141" fill="none" rx="3" ry="3" style="stroke:#038048;stroke-width:1.0;"/><text fill="#000000" font-family="sans-serif" font-size="14" lengthAdjust="spacing" textLength="82" x="27" y="735.1426">userId: string</text><ellipse cx="18" cy="748.5234" fill="none" rx="3" ry="3" style="stroke:#038048;stroke-width:1.0;"/><text fill="#000000" font-family="sans-serif" font-size="14" lengthAdjust="spacing" textLength="65" x="27" y="752.752">title: string</text><ellipse cx="18" cy="766.1328" fill="none" rx="3" ry="3" style="stroke:#038048;stroke-width:1.0;"/><text fill="#000000" font-family="sans-serif" font-size="14" lengthAdjust="spacing" textLength="108" x="27" y="770.3613">summary?: string</text><ellipse cx="18" cy="783.7422" fill="none" rx="3" ry="3" style="stroke:#038048;stroke-width:1.0;"/><text fill="#000000" font-family="sans-serif" font-size="14" lengthAdjust="spacing" textLength="105" x="27" y="787.9707">dueDate?: string</text><ellipse cx="18" cy="801.3516" fill="none" rx="3" ry="3" style="stroke:#038048;stroke-width:1.0;"/><text fill="#000000" font-family="sans-serif" font-size="14" lengthAdjust="spacing" textLength="124" x="27" y="805.5801">completed: boolean</text><line style="stroke:#181818;stroke-width:0.5;" x1="8" x2="156" y1="812.6563" y2="812.6563"/></g><!--class NewTaskData--><g id="elem_NewTaskData"><rect codeLine="88" fill="#F1F1F1" height="100.8281" id="NewTaskData" rx="2.5" ry="2.5" style="stroke:#181818;stroke-width:0.5;" width="126" x="1097" y="203.5"/><ellipse cx="1115.15" cy="219.5" fill="#ADD1B2" rx="11" ry="11" style="stroke:#181818;stroke-width:1.0;"/><path d="M1117.9156,215.375 Q1118.0719,215.1563 1118.2594,215.0469 Q1118.4469,214.9375 1118.6656,214.9375 Q1119.0406,214.9375 1119.275,215.2031 Q1119.5094,215.4531 1119.5094,216.0625 L1119.5094,217.5156 Q1119.5094,218.125 1119.275,218.3906 Q1119.0406,218.6563 1118.6656,218.6563 Q1118.3219,218.6563 1118.1188,218.4531 Q1117.9156,218.2656 1117.8063,217.75 Q1117.7594,217.3906 1117.5719,217.2031 Q1117.2438,216.8281 1116.6344,216.6094 Q1116.025,216.3906 1115.4,216.3906 Q1114.6344,216.3906 1113.9938,216.7188 Q1113.3688,217.0469 1112.8688,217.7969 Q1112.3844,218.5469 1112.3844,219.5781 L1112.3844,220.6719 Q1112.3844,221.9063 1113.275,222.7344 Q1114.1656,223.5469 1115.7594,223.5469 Q1116.6969,223.5469 1117.3531,223.2969 Q1117.7438,223.1406 1118.1656,222.7031 Q1118.4313,222.4375 1118.5719,222.3594 Q1118.7281,222.2813 1118.9313,222.2813 Q1119.2594,222.2813 1119.5094,222.5469 Q1119.775,222.7969 1119.775,223.1406 Q1119.775,223.4844 1119.4313,223.8906 Q1118.9313,224.4688 1118.1344,224.7969 Q1117.0563,225.25 1115.7594,225.25 Q1114.2438,225.25 1113.0406,224.625 Q1112.0563,224.125 1111.3688,223.0625 Q1110.6813,221.9844 1110.6813,220.7031 L1110.6813,219.5469 Q1110.6813,218.2188 1111.2906,217.0781 Q1111.9156,215.9219 1113.0094,215.3125 Q1114.1031,214.6875 1115.3375,214.6875 Q1116.0719,214.6875 1116.7125,214.8594 Q1117.3688,215.0156 1117.9156,215.375 Z " fill="#000000"/><text fill="#000000" font-family="sans-serif" font-size="14" lengthAdjust="spacing" textLength="87" x="1129.85" y="225.2285">NewTaskData</text><line style="stroke:#181818;stroke-width:0.5;" x1="1098" x2="1222" y1="235.5" y2="235.5"/><ellipse cx="1108" cy="249.8047" fill="none" rx="3" ry="3" style="stroke:#038048;stroke-width:1.0;"/><text fill="#000000" font-family="sans-serif" font-size="14" lengthAdjust="spacing" textLength="65" x="1117" y="254.0332">title: string</text><ellipse cx="1108" cy="267.4141" fill="none" rx="3" ry="3" style="stroke:#038048;stroke-width:1.0;"/><text fill="#000000" font-family="sans-serif" font-size="14" lengthAdjust="spacing" textLength="100" x="1117" y="271.6426">summary: string</text><ellipse cx="1108" cy="285.0234" fill="none" rx="3" ry="3" style="stroke:#038048;stroke-width:1.0;"/><text fill="#000000" font-family="sans-serif" font-size="14" lengthAdjust="spacing" textLength="97" x="1117" y="289.252">dueDate: string</text><line style="stroke:#181818;stroke-width:0.5;" x1="1098" x2="1222" y1="296.3281" y2="296.3281"/></g><!--class AppComponentTemplate--><g id="elem_AppComponentTemplate"><rect codeLine="94" fill="#F1F1F1" height="100.8281" id="AppComponentTemplate" rx="2.5" ry="2.5" style="stroke:#181818;stroke-width:0.5;" width="711" x="1820.5" y="444"/><ellipse cx="2107.75" cy="460" fill="#ADD1B2" rx="11" ry="11" style="stroke:#181818;stroke-width:1.0;"/><path d="M2110.5156,455.875 Q2110.6719,455.6563 2110.8594,455.5469 Q2111.0469,455.4375 2111.2656,455.4375 Q2111.6406,455.4375 2111.875,455.7031 Q2112.1094,455.9531 2112.1094,456.5625 L2112.1094,458.0156 Q2112.1094,458.625 2111.875,458.8906 Q2111.6406,459.1563 2111.2656,459.1563 Q2110.9219,459.1563 2110.7188,458.9531 Q2110.5156,458.7656 2110.4063,458.25 Q2110.3594,457.8906 2110.1719,457.7031 Q2109.8438,457.3281 2109.2344,457.1094 Q2108.625,456.8906 2108,456.8906 Q2107.2344,456.8906 2106.5938,457.2188 Q2105.9688,457.5469 2105.4688,458.2969 Q2104.9844,459.0469 2104.9844,460.0781 L2104.9844,461.1719 Q2104.9844,462.4063 2105.875,463.2344 Q2106.7656,464.0469 2108.3594,464.0469 Q2109.2969,464.0469 2109.9531,463.7969 Q2110.3438,463.6406 2110.7656,463.2031 Q2111.0313,462.9375 2111.1719,462.8594 Q2111.3281,462.7813 2111.5313,462.7813 Q2111.8594,462.7813 2112.1094,463.0469 Q2112.375,463.2969 2112.375,463.6406 Q2112.375,463.9844 2112.0313,464.3906 Q2111.5313,464.9688 2110.7344,465.2969 Q2109.6563,465.75 2108.3594,465.75 Q2106.8438,465.75 2105.6406,465.125 Q2104.6563,464.625 2103.9688,463.5625 Q2103.2813,462.4844 2103.2813,461.2031 L2103.2813,460.0469 Q2103.2813,458.7188 2103.8906,457.5781 Q2104.5156,456.4219 2105.6094,455.8125 Q2106.7031,455.1875 2107.9375,455.1875 Q2108.6719,455.1875 2109.3125,455.3594 Q2109.9688,455.5156 2110.5156,455.875 Z " fill="#000000"/><text fill="#000000" font-family="sans-serif" font-size="14" lengthAdjust="spacing" textLength="128" x="2128.25" y="465.7285">app.component.html</text><line style="stroke:#181818;stroke-width:0.5;" x1="1821.5" x2="2530.5" y1="476" y2="476"/><ellipse cx="1831.5" cy="490.3047" fill="none" rx="3" ry="3" style="stroke:#038048;stroke-width:1.0;"/><text fill="#000000" font-family="sans-serif" font-size="14" lengthAdjust="spacing" textLength="74" x="1840.5" y="494.5332">app-header</text><ellipse cx="1831.5" cy="507.9141" fill="none" rx="3" ry="3" style="stroke:#038048;stroke-width:1.0;"/><text fill="#000000" font-family="sans-serif" font-size="14" lengthAdjust="spacing" textLength="561" x="1840.5" y="512.1426">app-tasks [selectedUserName]="selectedUser!.name" [selectedUserId]="selectedUser!.id"</text><line style="stroke:#181818;stroke-width:0.5;" x1="1821.5" x2="2530.5" y1="519.2188" y2="519.2188"/><ellipse cx="1831.5" cy="533.5234" fill="#84BE84" rx="3" ry="3" style="stroke:#038048;stroke-width:1.0;"/><text fill="#000000" font-family="sans-serif" font-size="14" lengthAdjust="spacing" textLength="685" x="1840.5" y="537.752">app-user [user]="user" [isSelected]="selectedUser?.id === user.id" (selectedUser)="onSelectedUser($event)"</text></g><!--class UserComponentTemplate--><g id="elem_UserComponentTemplate"><rect codeLine="100" fill="#F1F1F1" height="118.4375" id="UserComponentTemplate" rx="2.5" ry="2.5" style="stroke:#181818;stroke-width:0.5;" width="394" x="2567" y="435.5"/><ellipse cx="2693.75" cy="451.5" fill="#ADD1B2" rx="11" ry="11" style="stroke:#181818;stroke-width:1.0;"/><path d="M2696.5156,447.375 Q2696.6719,447.1563 2696.8594,447.0469 Q2697.0469,446.9375 2697.2656,446.9375 Q2697.6406,446.9375 2697.875,447.2031 Q2698.1094,447.4531 2698.1094,448.0625 L2698.1094,449.5156 Q2698.1094,450.125 2697.875,450.3906 Q2697.6406,450.6563 2697.2656,450.6563 Q2696.9219,450.6563 2696.7188,450.4531 Q2696.5156,450.2656 2696.4063,449.75 Q2696.3594,449.3906 2696.1719,449.2031 Q2695.8438,448.8281 2695.2344,448.6094 Q2694.625,448.3906 2694,448.3906 Q2693.2344,448.3906 2692.5938,448.7188 Q2691.9688,449.0469 2691.4688,449.7969 Q2690.9844,450.5469 2690.9844,451.5781 L2690.9844,452.6719 Q2690.9844,453.9063 2691.875,454.7344 Q2692.7656,455.5469 2694.3594,455.5469 Q2695.2969,455.5469 2695.9531,455.2969 Q2696.3438,455.1406 2696.7656,454.7031 Q2697.0313,454.4375 2697.1719,454.3594 Q2697.3281,454.2813 2697.5313,454.2813 Q2697.8594,454.2813 2698.1094,454.5469 Q2698.375,454.7969 2698.375,455.1406 Q2698.375,455.4844 2698.0313,455.8906 Q2697.5313,456.4688 2696.7344,456.7969 Q2695.6563,457.25 2694.3594,457.25 Q2692.8438,457.25 2691.6406,456.625 Q2690.6563,456.125 2689.9688,455.0625 Q2689.2813,453.9844 2689.2813,452.7031 L2689.2813,451.5469 Q2689.2813,450.2188 2689.8906,449.0781 Q2690.5156,447.9219 2691.6094,447.3125 Q2692.7031,446.6875 2693.9375,446.6875 Q2694.6719,446.6875 2695.3125,446.8594 Q2695.9688,447.0156 2696.5156,447.375 Z " fill="#000000"/><text fill="#000000" font-family="sans-serif" font-size="14" lengthAdjust="spacing" textLength="132" x="2714.25" y="457.2285">user.component.html</text><line style="stroke:#181818;stroke-width:0.5;" x1="2568" x2="2960" y1="467.5" y2="467.5"/><ellipse cx="2578" cy="481.8047" fill="none" rx="3" ry="3" style="stroke:#038048;stroke-width:1.0;"/><text fill="#000000" font-family="sans-serif" font-size="14" lengthAdjust="spacing" textLength="57" x="2587" y="486.0332">app-card</text><ellipse cx="2578" cy="499.4141" fill="none" rx="3" ry="3" style="stroke:#038048;stroke-width:1.0;"/><text fill="#000000" font-family="sans-serif" font-size="14" lengthAdjust="spacing" textLength="250" x="2587" y="503.6426">img [src]="imagePath" [alt]="user.name"</text><ellipse cx="2578" cy="517.0234" fill="none" rx="3" ry="3" style="stroke:#038048;stroke-width:1.0;"/><text fill="#000000" font-family="sans-serif" font-size="14" lengthAdjust="spacing" textLength="130" x="2587" y="521.252">span {{ user.name }}</text><line style="stroke:#181818;stroke-width:0.5;" x1="2568" x2="2960" y1="528.3281" y2="528.3281"/><ellipse cx="2578" cy="542.6328" fill="#84BE84" rx="3" ry="3" style="stroke:#038048;stroke-width:1.0;"/><text fill="#000000" font-family="sans-serif" font-size="14" lengthAdjust="spacing" textLength="368" x="2587" y="546.8613">button [class.active]="isSelected" (click)="onClickedUser()"</text></g><!--class TasksComponentTemplate--><g id="elem_TasksComponentTemplate"><rect codeLine="107" fill="#F1F1F1" height="136.0469" id="TasksComponentTemplate" rx="2.5" ry="2.5" style="stroke:#181818;stroke-width:0.5;" width="456" x="192" y="676"/><ellipse cx="347.25" cy="692" fill="#ADD1B2" rx="11" ry="11" style="stroke:#181818;stroke-width:1.0;"/><path d="M350.0156,687.875 Q350.1719,687.6563 350.3594,687.5469 Q350.5469,687.4375 350.7656,687.4375 Q351.1406,687.4375 351.375,687.7031 Q351.6094,687.9531 351.6094,688.5625 L351.6094,690.0156 Q351.6094,690.625 351.375,690.8906 Q351.1406,691.1563 350.7656,691.1563 Q350.4219,691.1563 350.2188,690.9531 Q350.0156,690.7656 349.9063,690.25 Q349.8594,689.8906 349.6719,689.7031 Q349.3438,689.3281 348.7344,689.1094 Q348.125,688.8906 347.5,688.8906 Q346.7344,688.8906 346.0938,689.2188 Q345.4688,689.5469 344.9688,690.2969 Q344.4844,691.0469 344.4844,692.0781 L344.4844,693.1719 Q344.4844,694.4063 345.375,695.2344 Q346.2656,696.0469 347.8594,696.0469 Q348.7969,696.0469 349.4531,695.7969 Q349.8438,695.6406 350.2656,695.2031 Q350.5313,694.9375 350.6719,694.8594 Q350.8281,694.7813 351.0313,694.7813 Q351.3594,694.7813 351.6094,695.0469 Q351.875,695.2969 351.875,695.6406 Q351.875,695.9844 351.5313,696.3906 Q351.0313,696.9688 350.2344,697.2969 Q349.1563,697.75 347.8594,697.75 Q346.3438,697.75 345.1406,697.125 Q344.1563,696.625 343.4688,695.5625 Q342.7813,694.4844 342.7813,693.2031 L342.7813,692.0469 Q342.7813,690.7188 343.3906,689.5781 Q344.0156,688.4219 345.1094,687.8125 Q346.2031,687.1875 347.4375,687.1875 Q348.1719,687.1875 348.8125,687.3594 Q349.4688,687.5156 350.0156,687.875 Z " fill="#000000"/><text fill="#000000" font-family="sans-serif" font-size="14" lengthAdjust="spacing" textLength="137" x="367.75" y="697.7285">tasks.component.html</text><line style="stroke:#181818;stroke-width:0.5;" x1="193" x2="647" y1="708" y2="708"/><ellipse cx="203" cy="722.3047" fill="none" rx="3" ry="3" style="stroke:#038048;stroke-width:1.0;"/><text fill="#000000" font-family="sans-serif" font-size="14" lengthAdjust="spacing" textLength="11" x="212" y="726.5332">ul</text><ellipse cx="203" cy="739.9141" fill="none" rx="3" ry="3" style="stroke:#038048;stroke-width:1.0;"/><text fill="#000000" font-family="sans-serif" font-size="14" lengthAdjust="spacing" textLength="137" x="212" y="744.1426">app-task [task]="task"</text><line style="stroke:#181818;stroke-width:0.5;" x1="193" x2="647" y1="751.2188" y2="751.2188"/><ellipse cx="203" cy="765.5234" fill="#84BE84" rx="3" ry="3" style="stroke:#038048;stroke-width:1.0;"/><text fill="#000000" font-family="sans-serif" font-size="14" lengthAdjust="spacing" textLength="430" x="212" y="769.752">app-new-task [userId]="selectedUserId" (close)="onCloseAddTask()"</text><ellipse cx="203" cy="783.1328" fill="#84BE84" rx="3" ry="3" style="stroke:#038048;stroke-width:1.0;"/><text fill="#000000" font-family="sans-serif" font-size="14" lengthAdjust="spacing" textLength="230" x="212" y="787.3613">button (click)="onStartAddingTask()"</text><ellipse cx="203" cy="800.7422" fill="#84BE84" rx="3" ry="3" style="stroke:#038048;stroke-width:1.0;"/><text fill="#000000" font-family="sans-serif" font-size="14" lengthAdjust="spacing" textLength="255" x="212" y="804.9707">li *ngFor="let task of getTasksForUser()"</text></g><!--class TaskComponentTemplate--><g id="elem_TaskComponentTemplate"><rect codeLine="115" fill="#F1F1F1" height="153.6563" id="TaskComponentTemplate" rx="2.5" ry="2.5" style="stroke:#181818;stroke-width:0.5;" width="389" x="683.5" y="667"/><ellipse cx="808.75" cy="683" fill="#ADD1B2" rx="11" ry="11" style="stroke:#181818;stroke-width:1.0;"/><path d="M811.5156,678.875 Q811.6719,678.6563 811.8594,678.5469 Q812.0469,678.4375 812.2656,678.4375 Q812.6406,678.4375 812.875,678.7031 Q813.1094,678.9531 813.1094,679.5625 L813.1094,681.0156 Q813.1094,681.625 812.875,681.8906 Q812.6406,682.1563 812.2656,682.1563 Q811.9219,682.1563 811.7188,681.9531 Q811.5156,681.7656 811.4063,681.25 Q811.3594,680.8906 811.1719,680.7031 Q810.8438,680.3281 810.2344,680.1094 Q809.625,679.8906 809,679.8906 Q808.2344,679.8906 807.5938,680.2188 Q806.9688,680.5469 806.4688,681.2969 Q805.9844,682.0469 805.9844,683.0781 L805.9844,684.1719 Q805.9844,685.4063 806.875,686.2344 Q807.7656,687.0469 809.3594,687.0469 Q810.2969,687.0469 810.9531,686.7969 Q811.3438,686.6406 811.7656,686.2031 Q812.0313,685.9375 812.1719,685.8594 Q812.3281,685.7813 812.5313,685.7813 Q812.8594,685.7813 813.1094,686.0469 Q813.375,686.2969 813.375,686.6406 Q813.375,686.9844 813.0313,687.3906 Q812.5313,687.9688 811.7344,688.2969 Q810.6563,688.75 809.3594,688.75 Q807.8438,688.75 806.6406,688.125 Q805.6563,687.625 804.9688,686.5625 Q804.2813,685.4844 804.2813,684.2031 L804.2813,683.0469 Q804.2813,681.7188 804.8906,680.5781 Q805.5156,679.4219 806.6094,678.8125 Q807.7031,678.1875 808.9375,678.1875 Q809.6719,678.1875 810.3125,678.3594 Q810.9688,678.5156 811.5156,678.875 Z " fill="#000000"/><text fill="#000000" font-family="sans-serif" font-size="14" lengthAdjust="spacing" textLength="130" x="829.25" y="688.7285">task.component.html</text><line style="stroke:#181818;stroke-width:0.5;" x1="684.5" x2="1071.5" y1="699" y2="699"/><ellipse cx="694.5" cy="713.3047" fill="none" rx="3" ry="3" style="stroke:#038048;stroke-width:1.0;"/><text fill="#000000" font-family="sans-serif" font-size="14" lengthAdjust="spacing" textLength="57" x="703.5" y="717.5332">app-card</text><ellipse cx="694.5" cy="730.9141" fill="none" rx="3" ry="3" style="stroke:#038048;stroke-width:1.0;"/><text fill="#000000" font-family="sans-serif" font-size="14" lengthAdjust="spacing" textLength="100" x="703.5" y="735.1426">h2 {{ task.title }}</text><ellipse cx="694.5" cy="748.5234" fill="none" rx="3" ry="3" style="stroke:#038048;stroke-width:1.0;"/><text fill="#000000" font-family="sans-serif" font-size="14" lengthAdjust="spacing" textLength="251" x="703.5" y="752.752">time {{ task.dueDate | date : "fullDate" }}</text><ellipse cx="694.5" cy="766.1328" fill="none" rx="3" ry="3" style="stroke:#038048;stroke-width:1.0;"/><text fill="#000000" font-family="sans-serif" font-size="14" lengthAdjust="spacing" textLength="127" x="703.5" y="770.3613">p {{ task.summary }}</text><line style="stroke:#181818;stroke-width:0.5;" x1="684.5" x2="1071.5" y1="777.4375" y2="777.4375"/><ellipse cx="694.5" cy="791.7422" fill="#84BE84" rx="3" ry="3" style="stroke:#038048;stroke-width:1.0;"/><text fill="#000000" font-family="sans-serif" font-size="14" lengthAdjust="spacing" textLength="166" x="703.5" y="795.9707">button (click)="onDelete()"</text><ellipse cx="694.5" cy="809.3516" fill="#84BE84" rx="3" ry="3" style="stroke:#038048;stroke-width:1.0;"/><text fill="#000000" font-family="sans-serif" font-size="14" lengthAdjust="spacing" textLength="363" x="703.5" y="813.5801">button (click)="onComplete()" [disabled]="task.completed"</text></g><!--class NewTaskComponentTemplate--><g id="elem_NewTaskComponentTemplate"><rect codeLine="124" fill="#F1F1F1" height="153.6563" id="NewTaskComponentTemplate" rx="2.5" ry="2.5" style="stroke:#181818;stroke-width:0.5;" width="279" x="1479.5" y="667"/><ellipse cx="1534.75" cy="683" fill="#ADD1B2" rx="11" ry="11" style="stroke:#181818;stroke-width:1.0;"/><path d="M1537.5156,678.875 Q1537.6719,678.6563 1537.8594,678.5469 Q1538.0469,678.4375 1538.2656,678.4375 Q1538.6406,678.4375 1538.875,678.7031 Q1539.1094,678.9531 1539.1094,679.5625 L1539.1094,681.0156 Q1539.1094,681.625 1538.875,681.8906 Q1538.6406,682.1563 1538.2656,682.1563 Q1537.9219,682.1563 1537.7188,681.9531 Q1537.5156,681.7656 1537.4063,681.25 Q1537.3594,680.8906 1537.1719,680.7031 Q1536.8438,680.3281 1536.2344,680.1094 Q1535.625,679.8906 1535,679.8906 Q1534.2344,679.8906 1533.5938,680.2188 Q1532.9688,680.5469 1532.4688,681.2969 Q1531.9844,682.0469 1531.9844,683.0781 L1531.9844,684.1719 Q1531.9844,685.4063 1532.875,686.2344 Q1533.7656,687.0469 1535.3594,687.0469 Q1536.2969,687.0469 1536.9531,686.7969 Q1537.3438,686.6406 1537.7656,686.2031 Q1538.0313,685.9375 1538.1719,685.8594 Q1538.3281,685.7813 1538.5313,685.7813 Q1538.8594,685.7813 1539.1094,686.0469 Q1539.375,686.2969 1539.375,686.6406 Q1539.375,686.9844 1539.0313,687.3906 Q1538.5313,687.9688 1537.7344,688.2969 Q1536.6563,688.75 1535.3594,688.75 Q1533.8438,688.75 1532.6406,688.125 Q1531.6563,687.625 1530.9688,686.5625 Q1530.2813,685.4844 1530.2813,684.2031 L1530.2813,683.0469 Q1530.2813,681.7188 1530.8906,680.5781 Q1531.5156,679.4219 1532.6094,678.8125 Q1533.7031,678.1875 1534.9375,678.1875 Q1535.6719,678.1875 1536.3125,678.3594 Q1536.9688,678.5156 1537.5156,678.875 Z " fill="#000000"/><text fill="#000000" font-family="sans-serif" font-size="14" lengthAdjust="spacing" textLength="160" x="1555.25" y="688.7285">new-task.component.html</text><line style="stroke:#181818;stroke-width:0.5;" x1="1480.5" x2="1757.5" y1="699" y2="699"/><ellipse cx="1490.5" cy="713.3047" fill="none" rx="3" ry="3" style="stroke:#038048;stroke-width:1.0;"/><text fill="#000000" font-family="sans-serif" font-size="14" lengthAdjust="spacing" textLength="38" x="1499.5" y="717.5332">dialog</text><line style="stroke:#181818;stroke-width:0.5;" x1="1480.5" x2="1757.5" y1="724.6094" y2="724.6094"/><ellipse cx="1490.5" cy="738.9141" fill="#84BE84" rx="3" ry="3" style="stroke:#038048;stroke-width:1.0;"/><text fill="#000000" font-family="sans-serif" font-size="14" lengthAdjust="spacing" textLength="188" x="1499.5" y="743.1426">form (ngSubmit)="onSubmit()"</text><ellipse cx="1490.5" cy="756.5234" fill="#84BE84" rx="3" ry="3" style="stroke:#038048;stroke-width:1.0;"/><text fill="#000000" font-family="sans-serif" font-size="14" lengthAdjust="spacing" textLength="201" x="1499.5" y="760.752">input [(ngModel)]="enteredTitle"</text><ellipse cx="1490.5" cy="774.1328" fill="#84BE84" rx="3" ry="3" style="stroke:#038048;stroke-width:1.0;"/><text fill="#000000" font-family="sans-serif" font-size="14" lengthAdjust="spacing" textLength="253" x="1499.5" y="778.3613">textarea [(ngModel)]="enteredSummary"</text><ellipse cx="1490.5" cy="791.7422" fill="#84BE84" rx="3" ry="3" style="stroke:#038048;stroke-width:1.0;"/><text fill="#000000" font-family="sans-serif" font-size="14" lengthAdjust="spacing" textLength="230" x="1499.5" y="795.9707">input [(ngModel)]="enteredDueDate"</text><ellipse cx="1490.5" cy="809.3516" fill="#84BE84" rx="3" ry="3" style="stroke:#038048;stroke-width:1.0;"/><text fill="#000000" font-family="sans-serif" font-size="14" lengthAdjust="spacing" textLength="244" x="1499.5" y="813.5801">button (click)="onCancelAddingTask()"</text></g><!--class CardComponentTemplate--><g id="elem_CardComponentTemplate"><rect codeLine="133" fill="#F1F1F1" height="65.6094" id="CardComponentTemplate" rx="2.5" ry="2.5" style="stroke:#181818;stroke-width:0.5;" width="164" x="1780" y="899"/><ellipse cx="1795" cy="915" fill="#ADD1B2" rx="11" ry="11" style="stroke:#181818;stroke-width:1.0;"/><path d="M1797.7656,910.875 Q1797.9219,910.6563 1798.1094,910.5469 Q1798.2969,910.4375 1798.5156,910.4375 Q1798.8906,910.4375 1799.125,910.7031 Q1799.3594,910.9531 1799.3594,911.5625 L1799.3594,913.0156 Q1799.3594,913.625 1799.125,913.8906 Q1798.8906,914.1563 1798.5156,914.1563 Q1798.1719,914.1563 1797.9688,913.9531 Q1797.7656,913.7656 1797.6563,913.25 Q1797.6094,912.8906 1797.4219,912.7031 Q1797.0938,912.3281 1796.4844,912.1094 Q1795.875,911.8906 1795.25,911.8906 Q1794.4844,911.8906 1793.8438,912.2188 Q1793.2188,912.5469 1792.7188,913.2969 Q1792.2344,914.0469 1792.2344,915.0781 L1792.2344,916.1719 Q1792.2344,917.4063 1793.125,918.2344 Q1794.0156,919.0469 1795.6094,919.0469 Q1796.5469,919.0469 1797.2031,918.7969 Q1797.5938,918.6406 1798.0156,918.2031 Q1798.2813,917.9375 1798.4219,917.8594 Q1798.5781,917.7813 1798.7813,917.7813 Q1799.1094,917.7813 1799.3594,918.0469 Q1799.625,918.2969 1799.625,918.6406 Q1799.625,918.9844 1799.2813,919.3906 Q1798.7813,919.9688 1797.9844,920.2969 Q1796.9063,920.75 1795.6094,920.75 Q1794.0938,920.75 1792.8906,920.125 Q1791.9063,919.625 1791.2188,918.5625 Q1790.5313,917.4844 1790.5313,916.2031 L1790.5313,915.0469 Q1790.5313,913.7188 1791.1406,912.5781 Q1791.7656,911.4219 1792.8594,910.8125 Q1793.9531,910.1875 1795.1875,910.1875 Q1795.9219,910.1875 1796.5625,910.3594 Q1797.2188,910.5156 1797.7656,910.875 Z " fill="#000000"/><text fill="#000000" font-family="sans-serif" font-size="14" lengthAdjust="spacing" textLength="132" x="1809" y="920.7285">card.component.html</text><line style="stroke:#181818;stroke-width:0.5;" x1="1781" x2="1943" y1="931" y2="931"/><ellipse cx="1791" cy="945.3047" fill="none" rx="3" ry="3" style="stroke:#038048;stroke-width:1.0;"/><text fill="#000000" font-family="sans-serif" font-size="14" lengthAdjust="spacing" textLength="68" x="1800" y="949.5332">ng-content</text><line style="stroke:#181818;stroke-width:0.5;" x1="1781" x2="1943" y1="956.6094" y2="956.6094"/></g><!--class BrowserModule--><g id="elem_BrowserModule"><rect fill="#F1F1F1" height="48" id="BrowserModule" rx="2.5" ry="2.5" style="stroke:#181818;stroke-width:0.5;" width="129" x="2568.5" y="230"/><ellipse cx="2583.5" cy="246" fill="#ADD1B2" rx="11" ry="11" style="stroke:#181818;stroke-width:1.0;"/><path d="M2586.2656,241.875 Q2586.4219,241.6563 2586.6094,241.5469 Q2586.7969,241.4375 2587.0156,241.4375 Q2587.3906,241.4375 2587.625,241.7031 Q2587.8594,241.9531 2587.8594,242.5625 L2587.8594,244.0156 Q2587.8594,244.625 2587.625,244.8906 Q2587.3906,245.1563 2587.0156,245.1563 Q2586.6719,245.1563 2586.4688,244.9531 Q2586.2656,244.7656 2586.1563,244.25 Q2586.1094,243.8906 2585.9219,243.7031 Q2585.5938,243.3281 2584.9844,243.1094 Q2584.375,242.8906 2583.75,242.8906 Q2582.9844,242.8906 2582.3438,243.2188 Q2581.7188,243.5469 2581.2188,244.2969 Q2580.7344,245.0469 2580.7344,246.0781 L2580.7344,247.1719 Q2580.7344,248.4063 2581.625,249.2344 Q2582.5156,250.0469 2584.1094,250.0469 Q2585.0469,250.0469 2585.7031,249.7969 Q2586.0938,249.6406 2586.5156,249.2031 Q2586.7813,248.9375 2586.9219,248.8594 Q2587.0781,248.7813 2587.2813,248.7813 Q2587.6094,248.7813 2587.8594,249.0469 Q2588.125,249.2969 2588.125,249.6406 Q2588.125,249.9844 2587.7813,250.3906 Q2587.2813,250.9688 2586.4844,251.2969 Q2585.4063,251.75 2584.1094,251.75 Q2582.5938,251.75 2581.3906,251.125 Q2580.4063,250.625 2579.7188,249.5625 Q2579.0313,248.4844 2579.0313,247.2031 L2579.0313,246.0469 Q2579.0313,244.7188 2579.6406,243.5781 Q2580.2656,242.4219 2581.3594,241.8125 Q2582.4531,241.1875 2583.6875,241.1875 Q2584.4219,241.1875 2585.0625,241.3594 Q2585.7188,241.5156 2586.2656,241.875 Z " fill="#000000"/><text fill="#000000" font-family="sans-serif" font-size="14" lengthAdjust="spacing" textLength="97" x="2597.5" y="251.7285">BrowserModule</text><line style="stroke:#181818;stroke-width:0.5;" x1="2569.5" x2="2696.5" y1="262" y2="262"/><line style="stroke:#181818;stroke-width:0.5;" x1="2569.5" x2="2696.5" y1="270" y2="270"/></g><!--class CommonModule--><g id="elem_CommonModule"><rect fill="#F1F1F1" height="48" id="CommonModule" rx="2.5" ry="2.5" style="stroke:#181818;stroke-width:0.5;" width="134" x="1454" y="470.5"/><ellipse cx="1469" cy="486.5" fill="#ADD1B2" rx="11" ry="11" style="stroke:#181818;stroke-width:1.0;"/><path d="M1471.7656,482.375 Q1471.9219,482.1563 1472.1094,482.0469 Q1472.2969,481.9375 1472.5156,481.9375 Q1472.8906,481.9375 1473.125,482.2031 Q1473.3594,482.4531 1473.3594,483.0625 L1473.3594,484.5156 Q1473.3594,485.125 1473.125,485.3906 Q1472.8906,485.6563 1472.5156,485.6563 Q1472.1719,485.6563 1471.9688,485.4531 Q1471.7656,485.2656 1471.6563,484.75 Q1471.6094,484.3906 1471.4219,484.2031 Q1471.0938,483.8281 1470.4844,483.6094 Q1469.875,483.3906 1469.25,483.3906 Q1468.4844,483.3906 1467.8438,483.7188 Q1467.2188,484.0469 1466.7188,484.7969 Q1466.2344,485.5469 1466.2344,486.5781 L1466.2344,487.6719 Q1466.2344,488.9063 1467.125,489.7344 Q1468.0156,490.5469 1469.6094,490.5469 Q1470.5469,490.5469 1471.2031,490.2969 Q1471.5938,490.1406 1472.0156,489.7031 Q1472.2813,489.4375 1472.4219,489.3594 Q1472.5781,489.2813 1472.7813,489.2813 Q1473.1094,489.2813 1473.3594,489.5469 Q1473.625,489.7969 1473.625,490.1406 Q1473.625,490.4844 1473.2813,490.8906 Q1472.7813,491.4688 1471.9844,491.7969 Q1470.9063,492.25 1469.6094,492.25 Q1468.0938,492.25 1466.8906,491.625 Q1465.9063,491.125 1465.2188,490.0625 Q1464.5313,488.9844 1464.5313,487.7031 L1464.5313,486.5469 Q1464.5313,485.2188 1465.1406,484.0781 Q1465.7656,482.9219 1466.8594,482.3125 Q1467.9531,481.6875 1469.1875,481.6875 Q1469.9219,481.6875 1470.5625,481.8594 Q1471.2188,482.0156 1471.7656,482.375 Z " fill="#000000"/><text fill="#000000" font-family="sans-serif" font-size="14" lengthAdjust="spacing" textLength="102" x="1483" y="492.2285">CommonModule</text><line style="stroke:#181818;stroke-width:0.5;" x1="1455" x2="1587" y1="502.5" y2="502.5"/><line style="stroke:#181818;stroke-width:0.5;" x1="1455" x2="1587" y1="510.5" y2="510.5"/></g><!--class FormsModule--><g id="elem_FormsModule"><rect fill="#F1F1F1" height="48" id="FormsModule" rx="2.5" ry="2.5" style="stroke:#181818;stroke-width:0.5;" width="118" x="537" y="470.5"/><ellipse cx="552" cy="486.5" fill="#ADD1B2" rx="11" ry="11" style="stroke:#181818;stroke-width:1.0;"/><path d="M554.7656,482.375 Q554.9219,482.1563 555.1094,482.0469 Q555.2969,481.9375 555.5156,481.9375 Q555.8906,481.9375 556.125,482.2031 Q556.3594,482.4531 556.3594,483.0625 L556.3594,484.5156 Q556.3594,485.125 556.125,485.3906 Q555.8906,485.6563 555.5156,485.6563 Q555.1719,485.6563 554.9688,485.4531 Q554.7656,485.2656 554.6563,484.75 Q554.6094,484.3906 554.4219,484.2031 Q554.0938,483.8281 553.4844,483.6094 Q552.875,483.3906 552.25,483.3906 Q551.4844,483.3906 550.8438,483.7188 Q550.2188,484.0469 549.7188,484.7969 Q549.2344,485.5469 549.2344,486.5781 L549.2344,487.6719 Q549.2344,488.9063 550.125,489.7344 Q551.0156,490.5469 552.6094,490.5469 Q553.5469,490.5469 554.2031,490.2969 Q554.5938,490.1406 555.0156,489.7031 Q555.2813,489.4375 555.4219,489.3594 Q555.5781,489.2813 555.7813,489.2813 Q556.1094,489.2813 556.3594,489.5469 Q556.625,489.7969 556.625,490.1406 Q556.625,490.4844 556.2813,490.8906 Q555.7813,491.4688 554.9844,491.7969 Q553.9063,492.25 552.6094,492.25 Q551.0938,492.25 549.8906,491.625 Q548.9063,491.125 548.2188,490.0625 Q547.5313,488.9844 547.5313,487.7031 L547.5313,486.5469 Q547.5313,485.2188 548.1406,484.0781 Q548.7656,482.9219 549.8594,482.3125 Q550.9531,481.6875 552.1875,481.6875 Q552.9219,481.6875 553.5625,481.8594 Q554.2188,482.0156 554.7656,482.375 Z " fill="#000000"/><text fill="#000000" font-family="sans-serif" font-size="14" lengthAdjust="spacing" textLength="86" x="566" y="492.2285">FormsModule</text><line style="stroke:#181818;stroke-width:0.5;" x1="538" x2="654" y1="502.5" y2="502.5"/><line style="stroke:#181818;stroke-width:0.5;" x1="538" x2="654" y1="510.5" y2="510.5"/></g><!--link AppComponent to AppComponentTemplate--><g id="link_AppComponent_AppComponentTemplate"><path codeLine="137" d="M2007.27,313.04 C2044.65,353.03 2089.7219,401.2276 2125.3319,439.3076 " fill="none" id="AppComponent-to-AppComponentTemplate" style="stroke:#181818;stroke-width:1.0;"/><polygon fill="#181818" points="2129.43,443.69,2126.2044,434.3843,2126.0149,440.038,2120.3612,439.8485,2129.43,443.69" style="stroke:#181818;stroke-width:1.0;"/><text fill="#000000" font-family="sans-serif" font-size="13" lengthAdjust="spacing" textLength="82" x="2058" y="366.4951">uses template</text></g><!--link UserComponent to UserComponentTemplate--><g id="link_UserComponent_UserComponentTemplate"><path codeLine="138" d="M2509.55,322.07 C2562.52,357.75 2622.0342,397.8472 2672.8342,432.0772 " fill="none" id="UserComponent-to-UserComponentTemplate" style="stroke:#181818;stroke-width:1.0;"/><polygon fill="#181818" points="2677.81,435.43,2672.5815,427.0836,2673.6635,432.636,2668.1111,433.718,2677.81,435.43" style="stroke:#181818;stroke-width:1.0;"/><text fill="#000000" font-family="sans-serif" font-size="13" lengthAdjust="spacing" textLength="82" x="2577" y="366.4951">uses template</text></g><!--link TasksComponent to TasksComponentTemplate--><g id="link_TasksComponent_TasksComponentTemplate"><path codeLine="139" d="M689.7,576.01 C683.77,580.49 677.84,584.85 672,589 C629.26,619.36 585.606,646.9548 542.406,672.8548 " fill="none" id="TasksComponent-to-TasksComponentTemplate" style="stroke:#181818;stroke-width:1.0;"/><polygon fill="#181818" points="537.26,675.94,547.0358,674.7428,541.5483,673.369,542.9222,667.8815,537.26,675.94" style="stroke:#181818;stroke-width:1.0;"/><text fill="#000000" font-family="sans-serif" font-size="13" lengthAdjust="spacing" textLength="82" x="627" y="633.4951">uses template</text></g><!--link TaskComponent to TaskComponentTemplate--><g id="link_TaskComponent_TaskComponentTemplate"><path codeLine="140" d="M1034.17,553.53 C1006.38,587.25 974.8466,625.5103 944.8066,661.9503 " fill="none" id="TaskComponent-to-TaskComponentTemplate" style="stroke:#181818;stroke-width:1.0;"/><polygon fill="#181818" points="940.99,666.58,949.8013,662.1799,944.1705,662.7219,943.6284,657.0911,940.99,666.58" style="stroke:#181818;stroke-width:1.0;"/><text fill="#000000" font-family="sans-serif" font-size="13" lengthAdjust="spacing" textLength="82" x="981" y="633.4951">uses template</text></g><!--link NewTaskComponent to NewTaskComponentTemplate--><g id="link_NewTaskComponent_NewTaskComponentTemplate"><path codeLine="141" d="M1418.58,579.29 C1453.35,607.69 1487.3129,635.4347 1521.3029,663.1947 " fill="none" id="NewTaskComponent-to-NewTaskComponentTemplate" style="stroke:#181818;stroke-width:1.0;"/><polygon fill="#181818" points="1525.95,666.99,1521.5096,658.1989,1522.0774,663.8272,1516.4491,664.3951,1525.95,666.99" style="stroke:#181818;stroke-width:1.0;"/><text fill="#000000" font-family="sans-serif" font-size="13" lengthAdjust="spacing" textLength="82" x="1486" y="633.4951">uses template</text></g><!--link CardComponent to CardComponentTemplate--><g id="link_CardComponent_CardComponentTemplate"><path codeLine="142" d="M1862,777.4 C1862,811.54 1862,858.97 1862,892.97 " fill="none" id="CardComponent-to-CardComponentTemplate" style="stroke:#181818;stroke-width:1.0;"/><polygon fill="#181818" points="1862,898.97,1866,889.97,1862,893.97,1858,889.97,1862,898.97" style="stroke:#181818;stroke-width:1.0;"/><text fill="#000000" font-family="sans-serif" font-size="13" lengthAdjust="spacing" textLength="82" x="1863" y="865.4951">uses template</text></g><!--link HeaderComponent to AppComponentTemplate--><g id="link_HeaderComponent_AppComponentTemplate"><path codeLine="143" d="M2176,278.3 C2176,316.4 2176,386.84 2176,437.59 " fill="none" id="HeaderComponent-to-AppComponentTemplate" style="stroke:#181818;stroke-width:1.0;"/><polygon fill="#181818" points="2176,443.59,2180,434.59,2176,438.59,2172,434.59,2176,443.59" style="stroke:#181818;stroke-width:1.0;"/><text fill="#000000" font-family="sans-serif" font-size="13" lengthAdjust="spacing" textLength="82" x="2177" y="366.4951">uses template</text></g><!--link AppModule to AppComponent--><g id="link_AppModule_AppComponent"><path codeLine="145" d="M2022.63,81.58 C2011.39,109.25 1994.3986,151.0913 1978.9786,189.0413 " fill="none" id="AppModule-to-AppComponent" style="stroke:#181818;stroke-width:1.0;"/><polygon fill="#181818" points="1976.72,194.6,1983.8137,187.7678,1978.6022,189.9678,1976.4022,184.7563,1976.72,194.6" style="stroke:#181818;stroke-width:1.0;"/><text fill="#000000" font-family="sans-serif" font-size="13" lengthAdjust="spacing" textLength="49" x="2000" y="152.4951">declares</text></g><!--link AppModule to HeaderComponent--><g id="link_AppModule_HeaderComponent"><path codeLine="146" d="M2049.08,81.58 C2076.8,119.01 2127.6696,187.718 2155.3696,225.128 " fill="none" id="AppModule-to-HeaderComponent" style="stroke:#181818;stroke-width:1.0;"/><polygon fill="#181818" points="2158.94,229.95,2156.799,220.3367,2155.9646,225.9316,2150.3697,225.0973,2158.94,229.95" style="stroke:#181818;stroke-width:1.0;"/><text fill="#000000" font-family="sans-serif" font-size="13" lengthAdjust="spacing" textLength="49" x="2105" y="152.4951">declares</text></g><!--link AppModule to UserComponent--><g id="link_AppModule_UserComponent"><path codeLine="147" d="M2076.85,81.58 C2128.18,107.99 2209.1148,149.6349 2281.0048,186.6249 " fill="none" id="AppModule-to-UserComponent" style="stroke:#181818;stroke-width:1.0;"/><polygon fill="#181818" points="2286.34,189.37,2280.1673,181.6955,2281.894,187.0824,2276.5071,188.8091,2286.34,189.37" style="stroke:#181818;stroke-width:1.0;"/><text fill="#000000" font-family="sans-serif" font-size="13" lengthAdjust="spacing" textLength="49" x="2222" y="152.4951">declares</text></g><!--link AppModule to BrowserModule--><g id="link_AppModule_BrowserModule"><path codeLine="148" d="M2083.58,63.55 C2179.92,74.58 2391.82,106.54 2551,186 C2573.37,197.17 2590.7493,211.2589 2606.2193,225.8789 " fill="none" id="AppModule-to-BrowserModule" style="stroke:#181818;stroke-width:1.0;"/><polygon fill="#181818" points="2610.58,230,2606.7863,220.9111,2606.946,226.5657,2601.2914,226.7254,2610.58,230" style="stroke:#181818;stroke-width:1.0;"/><text fill="#000000" font-family="sans-serif" font-size="13" lengthAdjust="spacing" textLength="43" x="2472" y="152.4951">imports</text></g><!--link AppModule to SharedModule--><g id="link_AppModule_SharedModule"><path codeLine="149" d="M1980.41,69.88 C1921.98,85.59 1828.48,119.82 1779,186 C1713.2,274 1716.0012,409.2076 1720.2312,464.3676 " fill="none" id="AppModule-to-SharedModule" style="stroke:#181818;stroke-width:1.0;"/><polygon fill="#181818" points="1720.69,470.35,1723.9901,461.0705,1720.3077,465.3646,1716.0136,461.6822,1720.69,470.35" style="stroke:#181818;stroke-width:1.0;"/><text fill="#000000" font-family="sans-serif" font-size="13" lengthAdjust="spacing" textLength="43" x="1780" y="259.4951">imports</text></g><!--link AppModule to TasksModule--><g id="link_AppModule_TasksModule"><path codeLine="150" d="M1980.21,68.27 C1909.76,81.93 1780.01,108.42 1671,138 C1565.18,166.72 1449.7723,205.7454 1379.8723,230.2454 " fill="none" id="AppModule-to-TasksModule" style="stroke:#181818;stroke-width:1.0;"/><polygon fill="#181818" points="1374.21,232.23,1384.0265,233.0279,1378.9286,230.5761,1381.3803,225.4782,1374.21,232.23" style="stroke:#181818;stroke-width:1.0;"/><text fill="#000000" font-family="sans-serif" font-size="13" lengthAdjust="spacing" textLength="43" x="1672" y="152.4951">imports</text></g><!--link TasksModule to TasksComponent--><g id="link_TasksModule_TasksComponent"><path codeLine="152" d="M1295.4,278.12 C1281.37,292.6 1261.64,310.61 1241,322 C1213.47,337.19 998.25,388.46 969,400 C940.13,411.39 915.0795,423.1033 887.5495,437.2133 " fill="none" id="TasksModule-to-TasksComponent" style="stroke:#181818;stroke-width:1.0;"/><polygon fill="#181818" points="882.21,439.95,892.0437,439.4047,886.6596,437.6694,888.3948,432.2853,882.21,439.95" style="stroke:#181818;stroke-width:1.0;"/><text fill="#000000" font-family="sans-serif" font-size="13" lengthAdjust="spacing" textLength="49" x="1142" y="366.4951">declares</text></g><!--link TasksModule to TaskComponent--><g id="link_TasksModule_TaskComponent"><path codeLine="153" d="M1293.14,278.3 C1257.72,314.4 1192.7122,380.6673 1143.1822,431.1473 " fill="none" id="TasksModule-to-TaskComponent" style="stroke:#181818;stroke-width:1.0;"/><polygon fill="#181818" points="1138.98,435.43,1148.1384,431.8073,1142.4818,431.861,1142.4281,426.2044,1138.98,435.43" style="stroke:#181818;stroke-width:1.0;"/><text fill="#000000" font-family="sans-serif" font-size="13" lengthAdjust="spacing" textLength="49" x="1220" y="366.4951">declares</text></g><!--link TasksModule to NewTaskComponent--><g id="link_TasksModule_NewTaskComponent"><path codeLine="154" d="M1316,278.3 C1316,306.49 1316,349.68 1316,393.92 " fill="none" id="TasksModule-to-NewTaskComponent" style="stroke:#181818;stroke-width:1.0;"/><polygon fill="#181818" points="1316,399.92,1320,390.92,1316,394.92,1312,390.92,1316,399.92" style="stroke:#181818;stroke-width:1.0;"/><text fill="#000000" font-family="sans-serif" font-size="13" lengthAdjust="spacing" textLength="49" x="1317" y="366.4951">declares</text></g><!--link TasksModule to CommonModule--><g id="link_TasksModule_CommonModule"><path codeLine="155" d="M1336.03,278.3 C1375.32,324.02 1458.1689,420.3999 1497.2789,465.8999 " fill="none" id="TasksModule-to-CommonModule" style="stroke:#181818;stroke-width:1.0;"/><polygon fill="#181818" points="1501.19,470.45,1498.3568,461.0175,1497.9308,466.6583,1492.29,466.2322,1501.19,470.45" style="stroke:#181818;stroke-width:1.0;"/><text fill="#000000" font-family="sans-serif" font-size="13" lengthAdjust="spacing" textLength="43" x="1413" y="366.4951">imports</text></g><!--link TasksModule to FormsModule--><g id="link_TasksModule_FormsModule"><path codeLine="156" d="M1296.83,278.14 C1282.96,293.22 1262.87,311.9 1241,322 C1212.03,335.38 699.81,384.36 672,400 C643.01,416.3 623.715,443.2267 610.985,465.2267 " fill="none" id="TasksModule-to-FormsModule" style="stroke:#181818;stroke-width:1.0;"/><polygon fill="#181818" points="607.98,470.42,615.9497,464.6335,610.4842,466.0923,609.0253,460.6268,607.98,470.42" style="stroke:#181818;stroke-width:1.0;"/><text fill="#000000" font-family="sans-serif" font-size="13" lengthAdjust="spacing" textLength="43" x="1021" y="366.4951">imports</text></g><!--link TasksModule to SharedModule--><g id="link_TasksModule_SharedModule"><path codeLine="157" d="M1370.49,278.09 C1430.2,304.33 1527.87,350.04 1606,400 C1639.3,421.29 1669.7795,446.3147 1692.7295,466.3447 " fill="none" id="TasksModule-to-SharedModule" style="stroke:#181818;stroke-width:1.0;"/><polygon fill="#181818" points="1697.25,470.29,1693.0995,461.3584,1693.483,467.0022,1687.8391,467.3857,1697.25,470.29" style="stroke:#181818;stroke-width:1.0;"/><text fill="#000000" font-family="sans-serif" font-size="13" lengthAdjust="spacing" textLength="43" x="1553" y="366.4951">imports</text></g><!--link SharedModule to CardComponent--><g id="link_SharedModule_CardComponent"><path codeLine="159" d="M1725.63,518.63 C1729.73,547.8 1739.51,598.74 1761,637 C1776.81,665.15 1797.3643,687.3987 1818.5243,706.7687 " fill="none" id="SharedModule-to-CardComponent" style="stroke:#181818;stroke-width:1.0;"/><polygon fill="#181818" points="1822.95,710.82,1819.0123,701.7926,1819.2619,707.4439,1813.6106,707.6935,1822.95,710.82" style="stroke:#181818;stroke-width:1.0;"/><text fill="#000000" font-family="sans-serif" font-size="13" lengthAdjust="spacing" textLength="49" x="1762" y="633.4951">declares</text></g><!--link SharedModule to CardComponent--><g id="link_SharedModule_CardComponent"><path codeLine="160" d="M1743.73,518.68 C1764.22,542.5 1795.4,581.32 1816,619 C1832.19,648.62 1843.1909,679.3767 1851.1209,705.0767 " fill="none" id="SharedModule-to-CardComponent-1" style="stroke:#181818;stroke-width:1.0;"/><polygon fill="#181818" points="1852.89,710.81,1854.0586,701.0307,1851.4158,706.0323,1846.4142,703.3895,1852.89,710.81" style="stroke:#181818;stroke-width:1.0;"/><text fill="#000000" font-family="sans-serif" font-size="13" lengthAdjust="spacing" textLength="43" x="1825" y="633.4951">exports</text></g><!--link TasksComponent to Task--><g id="link_TasksComponent_Task"><path codeLine="162" d="M690,579.71 C684.09,583.15 678.07,586.28 672,589 C569.77,634.79 276.15,621.03 174,667 C168.33,669.55 167.87,669.4548 162.39,672.7548 " fill="none" id="TasksComponent-to-Task" style="stroke:#181818;stroke-width:1.0;"/><polygon fill="#181818" points="157.25,675.85,167.0235,674.6338,161.5333,673.2706,162.8965,667.7805,157.25,675.85" style="stroke:#181818;stroke-width:1.0;"/><text fill="#000000" font-family="sans-serif" font-size="13" lengthAdjust="spacing" textLength="49" x="518" y="633.4951">contains</text><text fill="#000000" font-family="sans-serif" font-size="13" lengthAdjust="spacing" textLength="7" x="675.0711" y="583.3612">1</text><text fill="#000000" font-family="sans-serif" font-size="13" lengthAdjust="spacing" textLength="20" x="163.9611" y="665.9681">0..*</text></g><!--link TasksComponent to TasksService--><g id="link_TasksComponent_TasksService"><path codeLine="163" d="M824.53,580.06 C838.39,601.85 856.13,623.06 878,637 C958.25,688.15 998.14,642.15 1090,667 C1095.89,668.59 1096.1153,668.5655 1102.0953,670.4055 " fill="none" id="TasksComponent-to-TasksService" style="stroke:#181818;stroke-width:1.0;"/><polygon fill="#181818" points="1107.83,672.17,1100.4043,665.7001,1103.0511,670.6996,1098.0516,673.3463,1107.83,672.17" style="stroke:#181818;stroke-width:1.0;"/><rect fill="none" height="6" style="stroke:#C82930;stroke-width:1.0;" width="6" x="881" y="625.6758"/><text fill="#000000" font-family="sans-serif" font-size="13" lengthAdjust="spacing" textLength="67" x="891" y="633.4951">taskService</text></g><!--link TaskComponent to TasksService--><g id="link_TaskComponent_TasksService"><path codeLine="164" d="M1127.48,553.53 C1153.91,587.25 1183.828,625.4182 1212.398,661.8582 " fill="none" id="TaskComponent-to-TasksService" style="stroke:#181818;stroke-width:1.0;"/><polygon fill="#181818" points="1216.1,666.58,1213.6948,657.0293,1213.015,662.6452,1207.3991,661.9653,1216.1,666.58" style="stroke:#181818;stroke-width:1.0;"/><rect fill="none" height="6" style="stroke:#C82930;stroke-width:1.0;" width="6" x="1193" y="625.6758"/><text fill="#000000" font-family="sans-serif" font-size="13" lengthAdjust="spacing" textLength="67" x="1203" y="633.4951">taskService</text></g><!--link NewTaskComponent to TasksService--><g id="link_NewTaskComponent_TasksService"><path codeLine="165" d="M1300.88,589.07 C1296.74,614.67 1293.267,636.1768 1289.307,660.6868 " fill="none" id="NewTaskComponent-to-TasksService" style="stroke:#181818;stroke-width:1.0;"/><polygon fill="#181818" points="1288.35,666.61,1293.7343,658.3632,1289.1475,661.674,1285.8367,657.0872,1288.35,666.61" style="stroke:#181818;stroke-width:1.0;"/><rect fill="none" height="6" style="stroke:#C82930;stroke-width:1.0;" width="6" x="1299" y="625.6758"/><text fill="#000000" font-family="sans-serif" font-size="13" lengthAdjust="spacing" textLength="67" x="1309" y="633.4951">taskService</text></g><!--SRC=[ZLTBRziu4BxxLx347fnsRNHx5EeKsQIBvj2YGDoJqGCZJcoXUa6Yd1RP_FVEa9J5bnfVP6aumvdlcmVfl1HzppuUeLOVgq8fwDvlBzdJudcnoFNILlG_-ZleZaKEA6TifKYIwONTTnIysOFwraEdDPS3ljtAZFMgA-hzXQidfAIF9MsGiI_mI5ytGec_MMHrR0f9DXrKpH5EPacTePL2WRCrlKxhgrwO7VhbA3oXkshRpuqSIeWWn-AxW-X0ndBSuxgfsgP63ZL3RmWDCaIa6EGzb90haDyqp0yZXd39c92qgUyS-RA8O9-yqth2_RHLqOzRPUo-QKeGTUpNAm3ZwTB4SLqM-GyRXiDvKOazV1NgG4ABnYSm2ChrzqLKCCV1b64J_9MK-BxLUNN2nvhJNlvhkZ6qgT2GFIKwDPcwaHEafeShMunEdL3ns4hFlBhtaGN0ffApk-Do2GfydpSGoCxnPbiaaLwVfPm01KaaDpg5A0EisssXIezqAxyRgafqln8hDmDWStesIEnmZmu2FaMTGvba-noKrwAJ0SHwlyeRZA9Mazed4D8lTQy7Z67XyIAEE5mwLrAxbUTbDMKVCwr25dj3dzVIqX3doN9R5KuJXcccIMXBQiPBmaaCXeksNUSZJUk3gahEX3-cje3HeBLnXmQhWsPt_2BWR4VFxnjEFvpjfZc2ChTZFwmBoJQRZHxY-CxPqbs-sF1Wclq5LAWNVFIc3nIs2oT4uERLcfB7VRrR6MbX00uPEgO46zxOZEd8iIRf_NvGggdPJk-s5hagZXJNn0M2pMb2QfJUhEHcJEunu2udct5Y8WHHAaki0QLpt8gQFJsnavGzFpj0D4af9FwmZQ7KyAWPDlcC2Bir4720M0ZkREGE1mxEQBfglQ6aPrcmr_KUn_A6OxqpxRbvOD6yzhBFTlJ4oEY71wZdG9-HliCxObHledkAADNzXUoE2xQHsF-CRX4iO_nXA4iISQlUddHj7rfvJCmuvMTucuu6h05PzEA-rDrqGgadX8j_J5wAW_1qy6cGXIWRFIaUcgvYotflHhT9e9tYfaRhTb1iXnfuju7o0WDopmoje-0dvXn4KiqU8IziPe-JEMgYCyIbWVAPei0xEdpy_X7YtT5MgylqDCoe-NgcxFV2lrkHMNfiX7R1_OSCPxeqPHaRlcmNtHJ8TBP0Gcl_12RJDB6XNNWadqtiOhftXpQeAm7Jta4VQ8NUPXNzjCsg_TirZwXf9HahqA9JePPtwvzJSlynJ3eBLnmNWHjPIlCinIZnVz15fQgfep13DHpHLV-YrWml2qyUbP8RtekQyDFbSLhX_t2jpz-krw-vkRrbZBfT57K_sttZdzZCkvNEjDoSThBH_cJm6m00]--></g></svg>